<?xml version="1.0" encoding="UTF-8" standalone="no"?>
<!-- Created with Inkscape (http://www.inkscape.org/) -->

<svg
   version="1.1"
   id="svg1"
   width="312.15332"
   height="97.066666"
   viewBox="0 0 312.15332 97.066666"
   sodipodi:docname="S21Translation.svg"
   inkscape:version="1.3.2 (091e20e, 2023-11-25, custom)"
   xmlns:inkscape="http://www.inkscape.org/namespaces/inkscape"
   xmlns:sodipodi="http://sodipodi.sourceforge.net/DTD/sodipodi-0.dtd"
   xmlns="http://www.w3.org/2000/svg"
   xmlns:svg="http://www.w3.org/2000/svg">
  <defs
     id="defs1" />
  <sodipodi:namedview
     id="namedview1"
     pagecolor="#ffffff"
     bordercolor="#000000"
     borderopacity="0.25"
     inkscape:showpageshadow="2"
     inkscape:pageopacity="0.0"
     inkscape:pagecheckerboard="0"
     inkscape:deskcolor="#d1d1d1"
     inkscape:zoom="4.4785684"
     inkscape:cx="156.07666"
     inkscape:cy="48.564626"
     inkscape:window-width="1920"
     inkscape:window-height="1111"
     inkscape:window-x="-9"
     inkscape:window-y="-9"
     inkscape:window-maximized="1"
     inkscape:current-layer="g1">
    <inkscape:page
       x="0"
       y="0"
       inkscape:label="1"
       id="page1"
       width="312.15332"
       height="97.066666"
       margin="0"
       bleed="0" />
  </sodipodi:namedview>
  <g
     id="g1"
     inkscape:groupmode="layer"
     inkscape:label="1">
    <path
       id="path1"
       d="m -24.86638,25.24072 c -9.31619,-9.17682 -5.73561,-27.91728 7.99748,-41.85701 8.88242,-9.01629 20.30916,-14.18251 29.96877,-13.55069 4.74567,0.31057 8.80769,2.01148 11.76788,4.92788"
       style="fill:none;stroke:#ffbf80;stroke-width:0.79701;stroke-linecap:butt;stroke-linejoin:miter;stroke-miterlimit:10;stroke-dasharray:2.98883, 1.99255;stroke-dashoffset:0;stroke-opacity:1"
       transform="matrix(1.3333333,0,0,-1.3333333,57.738667,48.533333)" />
    <path
       id="path2"
       d="m 24.86768,-25.239 c 9.31526,9.17803 5.73286,27.9183 -8.00115,41.85755 -13.73172,13.93665 -32.4182,17.7975 -41.73299,8.62228"
       style="fill:none;stroke:#ff7f00;stroke-width:0.79701;stroke-linecap:butt;stroke-linejoin:miter;stroke-miterlimit:10;stroke-dasharray:none;stroke-opacity:1"
       transform="matrix(1.3333333,0,0,-1.3333333,57.738667,48.533333)" />
    <path
       id="path3"
       d="m -33.17653,-12.4412 c 5.2755,-14.0687 24.40566,-19.90331 42.72868,-13.03223 18.32042,6.86985 28.89881,23.84658 23.6249,37.91339"
       style="fill:none;stroke:#ffbf80;stroke-width:0.79701;stroke-linecap:butt;stroke-linejoin:miter;stroke-miterlimit:10;stroke-dasharray:2.98883, 1.99255;stroke-dashoffset:0;stroke-opacity:1"
       transform="matrix(1.3333333,0,0,-1.3333333,57.738667,48.533333)" />
    <path
       id="path4"
       d="m -12.72145,-33.06891 c 7.62671,-2.93342 19.505,9.49405 26.5309,27.75751 4.54439,11.81276 6.11194,23.74397 4.11235,31.29364 -0.98216,3.70912 -2.7772,6.15513 -5.20052,7.0869"
       style="fill:none;stroke:#ffbf80;stroke-width:0.79701;stroke-linecap:butt;stroke-linejoin:miter;stroke-miterlimit:10;stroke-dasharray:2.98883, 1.99255;stroke-dashoffset:0;stroke-opacity:1"
       transform="matrix(1.3333333,0,0,-1.3333333,57.738667,48.533333)" />
    <path
       id="path5"
       d="m 4.98573,-35.07901 c -3.4342,-0.48772 -8.45047,14.82241 -11.20398,34.19579 -2.75349,19.37336 -2.2017,35.47453 1.23252,35.96223"
       style="fill:none;stroke:#ffbf80;stroke-width:0.79701;stroke-linecap:butt;stroke-linejoin:miter;stroke-miterlimit:10;stroke-dasharray:2.98883, 1.99255;stroke-dashoffset:0;stroke-opacity:1"
       transform="matrix(1.3333333,0,0,-1.3333333,57.738667,48.533333)" />
    <path
       id="path6"
       d="m 27.38745,-22.47993 c 7.6423,9.3123 1.57549,20.67536 -13.55032,25.38035 -15.12581,4.705 -33.5827,0.9699 -41.22501,-8.34241 -4.39668,-5.35728 -4.39567,-11.68679 0.0035,-17.04324"
       style="fill:none;stroke:#ffbf80;stroke-width:0.79701;stroke-linecap:butt;stroke-linejoin:miter;stroke-miterlimit:10;stroke-dasharray:2.98883, 1.99255;stroke-dashoffset:0;stroke-opacity:1"
       transform="matrix(1.3333333,0,0,-1.3333333,57.738667,48.533333)" />
    <path
       id="path7"
       d="m -9.38849,-33.43126 c 8.29804,-3.19226 19.22804,-1.6387 24.41322,3.47003 5.18519,5.10875 2.66179,11.83788 -5.63624,15.03014 -8.29804,3.19226 -19.22804,1.63872 -24.41322,-3.47003 -5.18519,-5.10875 -2.66179,-11.83788 5.63624,-15.03014 z"
       style="fill:none;stroke:#ffbf80;stroke-width:0.79701;stroke-linecap:butt;stroke-linejoin:miter;stroke-miterlimit:10;stroke-dasharray:2.98883, 1.99255;stroke-dashoffset:0;stroke-opacity:1"
       transform="matrix(1.3333333,0,0,-1.3333333,57.738667,48.533333)" />
    <path
       id="path8"
       d="M 35.43329,2.1e-4 C 35.43315,12.04805 19.56866,21.81488 -4.1e-4,21.81477 -19.56638,21.81464 -35.43185,12.04684 -35.43288,0.00104"
       style="fill:none;stroke:#ffbf80;stroke-width:0.79701;stroke-linecap:butt;stroke-linejoin:miter;stroke-miterlimit:10;stroke-dasharray:2.98883, 1.99255;stroke-dashoffset:0;stroke-opacity:1"
       transform="matrix(1.3333333,0,0,-1.3333333,57.738667,48.533333)" />
    <path
       id="path9"
       d="m 27.38411,22.48524 c -7.6467,9.31089 -26.10634,13.04267 -41.22992,8.33492 -5.84161,-1.81857 -10.58855,-4.74223 -13.54109,-8.33884"
       style="fill:none;stroke:#ffbf80;stroke-width:0.79701;stroke-linecap:butt;stroke-linejoin:miter;stroke-miterlimit:10;stroke-dasharray:2.98883, 1.99255;stroke-dashoffset:0;stroke-opacity:1"
       transform="matrix(1.3333333,0,0,-1.3333333,57.738667,48.533333)" />
    <path
       id="path10"
       d="M -5.47562,17.62947 V 6.70747 L 27.11324,-1.22821 V 20.61543 Z"
       style="fill:#ffcc99;fill-opacity:1;fill-rule:nonzero;stroke:#000000;stroke-width:0.79701;stroke-linecap:butt;stroke-linejoin:miter;stroke-miterlimit:10;stroke-dasharray:none;stroke-opacity:1"
       transform="matrix(1.3333333,0,0,-1.3333333,57.738667,48.533333)" />
    <path
       id="path11"
       d="M -5.47562,6.70747 -20.1651,-7.76543 -2.26591,-30.17424 27.11324,-1.22821 Z"
       style="fill:#ffcc99;fill-opacity:1;fill-rule:nonzero;stroke:#000000;stroke-width:0.79701;stroke-linecap:butt;stroke-linejoin:miter;stroke-miterlimit:10;stroke-dasharray:none;stroke-opacity:1"
       transform="matrix(1.3333333,0,0,-1.3333333,57.738667,48.533333)" />
    <path
       id="path12"
       d="m 162.82707,15.6563 c -3.72645,-3.67072 -2.29423,-11.1669 3.19901,-16.74277 3.55296,-3.60651 8.12364,-5.67301 11.98749,-5.42027 1.89825,0.12424 3.52308,0.80459 4.70715,1.97114"
       style="fill:none;stroke:#9bbfdc;stroke-width:0.79701;stroke-linecap:butt;stroke-linejoin:miter;stroke-miterlimit:10;stroke-dasharray:2.98883, 1.99255;stroke-dashoffset:0;stroke-opacity:1"
       transform="matrix(1.3333333,0,0,-1.3333333,57.738667,48.533333)" />
    <path
       id="path13"
       d="m 159.503,0.58356 c 2.1102,-5.62747 9.76224,-7.96135 17.09147,-5.21292 7.32817,2.74792 11.55952,9.5386 9.44996,15.16532"
       style="fill:none;stroke:#9bbfdc;stroke-width:0.79701;stroke-linecap:butt;stroke-linejoin:miter;stroke-miterlimit:10;stroke-dasharray:2.98883, 1.99255;stroke-dashoffset:0;stroke-opacity:1"
       transform="matrix(1.3333333,0,0,-1.3333333,57.738667,48.533333)" />
    <path
       id="path14"
       d="m 167.68501,-7.66754 c 3.05069,-1.17337 7.80202,3.79764 10.61237,11.103 1.81775,4.72511 2.44476,9.49758 1.64492,12.51744 -0.39285,1.48364 -1.11086,2.46202 -2.0802,2.83474"
       style="fill:none;stroke:#9bbfdc;stroke-width:0.79701;stroke-linecap:butt;stroke-linejoin:miter;stroke-miterlimit:10;stroke-dasharray:2.98883, 1.99255;stroke-dashoffset:0;stroke-opacity:1"
       transform="matrix(1.3333333,0,0,-1.3333333,57.738667,48.533333)" />
    <path
       id="path15"
       d="m 174.76791,-8.47157 c -1.37368,-0.19507 -3.38018,5.92894 -4.48159,13.67827 -1.1014,7.74934 -0.88067,14.1898 0.49302,14.38487"
       style="fill:none;stroke:#9bbfdc;stroke-width:0.79701;stroke-linecap:butt;stroke-linejoin:miter;stroke-miterlimit:10;stroke-dasharray:2.98883, 1.99255;stroke-dashoffset:0;stroke-opacity:1"
       transform="matrix(1.3333333,0,0,-1.3333333,57.738667,48.533333)" />
    <path
       id="path16"
       d="m 183.72858,-3.4319 c 3.05692,3.7249 0.6302,8.27011 -5.42012,10.15211 -6.05034,1.88201 -13.43308,0.38796 -16.49001,-3.33695 -1.75867,-2.1429 -1.75827,-4.6747 10e-4,-6.81726"
       style="fill:none;stroke:#9bbfdc;stroke-width:0.79701;stroke-linecap:butt;stroke-linejoin:miter;stroke-miterlimit:10;stroke-dasharray:2.98883, 1.99255;stroke-dashoffset:0;stroke-opacity:1"
       transform="matrix(1.3333333,0,0,-1.3333333,57.738667,48.533333)" />
    <path
       id="path17"
       d="m 169.01823,-7.81245 c 3.3192,-1.27691 7.69121,-0.65549 9.76528,1.388 2.07406,2.04347 1.06471,4.73513 -2.25451,6.01205 -3.31919,1.27689 -7.6912,0.65546 -9.76527,-1.38802 -2.07406,-2.04347 -1.06469,-4.73513 2.2545,-6.01203 z"
       style="fill:none;stroke:#9bbfdc;stroke-width:0.79701;stroke-linecap:butt;stroke-linejoin:miter;stroke-miterlimit:10;stroke-dasharray:2.98883, 1.99255;stroke-dashoffset:0;stroke-opacity:1"
       transform="matrix(1.3333333,0,0,-1.3333333,57.738667,48.533333)" />
    <path
       id="path18"
       d="m 186.94699,5.56012 c -6e-5,4.81912 -6.34585,8.72586 -14.17349,8.72581 -7.82636,-6e-5 -14.17256,-3.90716 -14.17298,-8.72547"
       style="fill:none;stroke:#9bbfdc;stroke-width:0.79701;stroke-linecap:butt;stroke-linejoin:miter;stroke-miterlimit:10;stroke-dasharray:2.98883, 1.99255;stroke-dashoffset:0;stroke-opacity:1"
       transform="matrix(1.3333333,0,0,-1.3333333,57.738667,48.533333)" />
    <path
       id="path19"
       d="m 183.72711,14.55412 c -3.05868,3.72435 -10.44255,5.21708 -16.49197,3.33397 -2.33663,-0.72741 -4.23541,-1.89689 -5.41643,-3.33552"
       style="fill:none;stroke:#9bbfdc;stroke-width:0.79701;stroke-linecap:butt;stroke-linejoin:miter;stroke-miterlimit:10;stroke-dasharray:2.98883, 1.99255;stroke-dashoffset:0;stroke-opacity:1"
       transform="matrix(1.3333333,0,0,-1.3333333,57.738667,48.533333)" />
    <path
       id="path20"
       d="M 0,0 8.63919,0.278"
       style="fill:none;stroke:#e41a1c;stroke-width:1.59404;stroke-linecap:butt;stroke-linejoin:miter;stroke-miterlimit:10;stroke-dasharray:none;stroke-opacity:1"
       transform="matrix(1.3333333,0,0,-1.3333333,57.738667,48.533333)" />
    <path
       id="path21"
       d="M 1.4174,0 C 1.4174,0.78282 0.78282,1.4174 0,1.4174 -0.78282,1.4174 -1.4174,0.78282 -1.4174,0 c 0,-0.78282 0.63458,-1.4174 1.4174,-1.4174 0.78282,0 1.4174,0.63458 1.4174,1.4174 z"
       style="fill:#000000;fill-opacity:1;fill-rule:nonzero;stroke:#000000;stroke-width:0.79701;stroke-linecap:butt;stroke-linejoin:miter;stroke-miterlimit:10;stroke-dasharray:none;stroke-opacity:1"
       transform="matrix(1.3333333,0,0,-1.3333333,57.738667,48.533333)" />
    <path
       id="path22"
       d="M -20.1651,3.15656 V -7.76543 l -2.8054,1.07926 V 4.23581 Z"
       style="fill:#ffb266;fill-opacity:1;fill-rule:nonzero;stroke:#000000;stroke-width:0.79701;stroke-linecap:butt;stroke-linejoin:miter;stroke-miterlimit:10;stroke-dasharray:none;stroke-opacity:1"
       transform="matrix(1.3333333,0,0,-1.3333333,57.738667,48.533333)" />
    <path
       id="path23"
       d="M -20.1651,3.15656 V -7.76543 l 17.89919,-22.40881 v 21.84366 z"
       style="fill:#ffb266;fill-opacity:1;fill-rule:nonzero;stroke:#000000;stroke-width:0.79701;stroke-linecap:butt;stroke-linejoin:miter;stroke-miterlimit:10;stroke-dasharray:none;stroke-opacity:1"
       transform="matrix(1.3333333,0,0,-1.3333333,57.738667,48.533333)" />
    <path
       id="path24"
       d="M -8.28102,18.70872 V 7.78671 l 2.8054,-1.07924 v 10.922 z"
       style="fill:#ffb266;fill-opacity:1;fill-rule:nonzero;stroke:#000000;stroke-width:0.79701;stroke-linecap:butt;stroke-linejoin:miter;stroke-miterlimit:10;stroke-dasharray:none;stroke-opacity:1"
       transform="matrix(1.3333333,0,0,-1.3333333,57.738667,48.533333)" />
    <path
       id="path25"
       d="M -8.28102,18.70872 -5.47562,17.62947 -20.1651,3.15656 -22.9705,4.23581 Z"
       style="fill:#ffb266;fill-opacity:1;fill-rule:nonzero;stroke:#000000;stroke-width:0.79701;stroke-linecap:butt;stroke-linejoin:miter;stroke-miterlimit:10;stroke-dasharray:none;stroke-opacity:1"
       transform="matrix(1.3333333,0,0,-1.3333333,57.738667,48.533333)" />
    <path
       id="path26"
       d="M -5.47562,17.62947 27.11324,20.61543 -2.26591,-8.33058 -20.1651,3.15656 Z"
       style="fill:#ffb266;fill-opacity:1;fill-rule:nonzero;stroke:#000000;stroke-width:0.79701;stroke-linecap:butt;stroke-linejoin:miter;stroke-miterlimit:10;stroke-dasharray:none;stroke-opacity:1"
       transform="matrix(1.3333333,0,0,-1.3333333,57.738667,48.533333)" />
    <path
       id="path27"
       d="m 174.19104,5.56003 c 0,0.78282 -0.6346,1.41742 -1.41742,1.41742 -0.78282,0 -1.41742,-0.6346 -1.41742,-1.41742 0,-0.78283 0.6346,-1.41742 1.41742,-1.41742 0.78282,0 1.41742,0.63459 1.41742,1.41742 z"
       style="fill:#000000;fill-opacity:1;fill-rule:nonzero;stroke:#000000;stroke-width:0.79701;stroke-linecap:butt;stroke-linejoin:miter;stroke-miterlimit:10;stroke-dasharray:none;stroke-opacity:1"
       transform="matrix(1.3333333,0,0,-1.3333333,57.738667,48.533333)" />
    <path
       id="path28"
       d="m 8.63919,0.278 157.3237,5.06294"
       style="fill:none;stroke:#e41a1c;stroke-width:1.59404;stroke-linecap:butt;stroke-linejoin:miter;stroke-miterlimit:10;stroke-dasharray:none;stroke-opacity:1"
       transform="matrix(1.3333333,0,0,-1.3333333,57.738667,48.533333)" />
    <path
       id="path29"
       d="M 6.81448,0 C 4.79533,0.37857 1.51433,1.51433 -0.75716,2.83936 V -2.83936 C 1.51433,-1.51433 4.79533,-0.37857 6.81448,0"
       style="fill:#e41a1c;fill-opacity:1;fill-rule:nonzero;stroke:none"
       transform="matrix(1.3326,-0.04286667,-0.04286667,-1.3326,279.02251,41.412093)" />
    <path
       id="path30"
       d="m 3.7725937,-3.622375 0.5742188,-2.5898437 h 0.1523437 c 0.09375,0 0.1875,0 0.3398438,0.035156 0.3398437,0.082031 0.7148437,0.3164063 0.7148437,1.1367188 0,0.7734375 -0.375,1.4179687 -1.3828125,1.4179687 z m 4.03125,3.38671875 c -0.7617187,0 -1.0664062,-0.375 -1.2890625,-0.83203125 L 5.3663437,-3.3645625 C 6.43275,-3.6340937 7.0772812,-4.3137812 7.0772812,-5.122375 c 0,-0.8203125 -0.609375,-1.546875 -2.3320312,-1.546875 H 1.9093125 l -0.035156,0.234375 h 0.3632813 c 0.4335937,0 0.5859375,0.1171875 0.5859375,0.3515625 0,0.070312 -0.011719,0.1640625 -0.035156,0.2695313 L 1.6515,-0.8333125 C 1.55775,-0.44659375 1.464,-0.23565625 0.81946875,-0.23565625 H 0.4561875 l -0.0351563,0.234375 h 3.5859375 l 0.035156,-0.234375 H 3.6554062 c -0.4453125,0 -0.5390625,-0.09375 -0.5625,-0.36328125 0,-0.0820313 0.011719,-0.1640625 0.023437,-0.22265625 L 3.667125,-3.1770625 c 0.2578125,0.011719 0.2929687,0.023437 0.3515625,0.023437 l 1.5234375,3.15234375 h 2.2265625 z m 0,0"
       style="fill:#e41a1c;fill-opacity:1;fill-rule:nonzero;stroke:none"
       aria-label="ð‘¹"
       transform="matrix(1.3333333,0,0,1.3333333,162.548,59.017333)" />
    <path
       id="path31"
       d="m 162.74426,8.37657 c -0.95768,-2.48939 -0.49162,-5.76842 1.041,-7.32396 1.53261,-1.55552 3.55135,-0.79854 4.50902,1.69087 0.95769,2.4894 0.49162,5.76842 -1.041,7.32396 -1.53261,1.55555 -3.55135,0.79853 -4.50902,-1.69087 z"
       style="fill:#87b2d4;fill-opacity:1;fill-rule:nonzero;stroke:#000000;stroke-width:0.79701;stroke-linecap:butt;stroke-linejoin:miter;stroke-miterlimit:10;stroke-dasharray:none;stroke-opacity:1"
       transform="matrix(1.3333333,0,0,-1.3333333,57.738667,48.533333)" />
    <path
       id="path32"
       d="m 177.60788,2.61559 -6.16222,0.24026 -5.06541,-2.41878 -0.39377,10.02057 4.63345,-1.95317 h 5.696 z"
       style="fill:#87b2d4;fill-opacity:1;fill-rule:nonzero;stroke:none"
       transform="matrix(1.3333333,0,0,-1.3333333,57.738667,48.533333)" />
    <path
       id="path33"
       d="m 165.98648,10.45764 4.63345,-1.95317 h 5.696"
       style="fill:none;stroke:#000000;stroke-width:0.79701;stroke-linecap:butt;stroke-linejoin:miter;stroke-miterlimit:10;stroke-dasharray:none;stroke-opacity:1"
       transform="matrix(1.3333333,0,0,-1.3333333,57.738667,48.533333)" />
    <path
       id="path34"
       d="m 177.60788,2.61559 -6.16222,0.24026 -5.06541,-2.41878"
       style="fill:none;stroke:#000000;stroke-width:0.79701;stroke-linecap:butt;stroke-linejoin:miter;stroke-miterlimit:10;stroke-dasharray:none;stroke-opacity:1"
       transform="matrix(1.3333333,0,0,-1.3333333,57.738667,48.533333)" />
    <path
       id="path35"
       d="m 175.46126,7.24988 c -0.57457,-1.49358 -0.29496,-3.46091 0.62457,-4.3942 0.91953,-0.93327 2.13072,-0.47909 2.70529,1.0145 0.57458,1.49357 0.29495,3.46091 -0.62457,4.39418 -0.91951,0.93329 -2.13072,0.47909 -2.70529,-1.01448 z"
       style="fill:#87b2d4;fill-opacity:1;fill-rule:nonzero;stroke:#000000;stroke-width:0.79701;stroke-linecap:butt;stroke-linejoin:miter;stroke-miterlimit:10;stroke-dasharray:none;stroke-opacity:1"
       transform="matrix(1.3333333,0,0,-1.3333333,57.738667,48.533333)" />
    <path
       id="path36"
       d="m 170.5251,8.29834 c -0.93106,-0.76468 -1.30424,-2.61063 -0.83346,-4.12297 0.18185,-0.58421 0.47428,-1.05897 0.83399,-1.35417"
       style="fill:none;stroke:#000000;stroke-width:0.79701;stroke-linecap:butt;stroke-linejoin:miter;stroke-miterlimit:10;stroke-dasharray:none;stroke-opacity:1"
       transform="matrix(1.3333333,0,0,-1.3333333,57.738667,48.533333)" />
    <path
       id="path37"
       d="m 174.19104,5.56003 c 0,0.78282 -0.6346,1.41742 -1.41742,1.41742 -0.78282,0 -1.41742,-0.6346 -1.41742,-1.41742 0,-0.78283 0.6346,-1.41742 1.41742,-1.41742 0.78282,0 1.41742,0.63459 1.41742,1.41742 z"
       style="fill:#000000;fill-opacity:1;fill-rule:nonzero;stroke:#000000;stroke-width:0.79701;stroke-linecap:butt;stroke-linejoin:miter;stroke-miterlimit:10;stroke-dasharray:none;stroke-opacity:1"
       transform="matrix(1.3333333,0,0,-1.3333333,57.738667,48.533333)" />
    <path
       id="path38"
       d="m 8.63919,0.278 157.3237,5.06294"
       style="fill:none;stroke:#e41a1c;stroke-width:1.59404;stroke-linecap:butt;stroke-linejoin:miter;stroke-miterlimit:10;stroke-dasharray:none;stroke-opacity:1"
       transform="matrix(1.3333333,0,0,-1.3333333,57.738667,48.533333)" />
    <path
       id="path39"
       d="M 6.81448,0 C 4.79533,0.37857 1.51433,1.51433 -0.75716,2.83936 V -2.83936 C 1.51433,-1.51433 4.79533,-0.37857 6.81448,0"
       style="fill:#e41a1c;fill-opacity:1;fill-rule:nonzero;stroke:none"
       transform="matrix(1.3326,-0.04286667,-0.04286667,-1.3326,279.02251,41.412093)" />
    <path
       id="path40"
       d="m 3.7725937,-3.622375 0.5742188,-2.5898437 h 0.1523437 c 0.09375,0 0.1875,0 0.3398438,0.035156 0.3398437,0.082031 0.7148437,0.3164063 0.7148437,1.1367188 0,0.7734375 -0.375,1.4179687 -1.3828125,1.4179687 z m 4.03125,3.38671875 c -0.7617187,0 -1.0664062,-0.375 -1.2890625,-0.83203125 L 5.3663437,-3.3645625 C 6.43275,-3.6340937 7.0772812,-4.3137812 7.0772812,-5.122375 c 0,-0.8203125 -0.609375,-1.546875 -2.3320312,-1.546875 H 1.9093125 l -0.035156,0.234375 h 0.3632813 c 0.4335937,0 0.5859375,0.1171875 0.5859375,0.3515625 0,0.070312 -0.011719,0.1640625 -0.035156,0.2695313 L 1.6515,-0.8333125 C 1.55775,-0.44659375 1.464,-0.23565625 0.81946875,-0.23565625 H 0.4561875 l -0.0351563,0.234375 h 3.5859375 l 0.035156,-0.234375 H 3.6554062 c -0.4453125,0 -0.5390625,-0.09375 -0.5625,-0.36328125 0,-0.0820313 0.011719,-0.1640625 0.023437,-0.22265625 L 3.667125,-3.1770625 c 0.2578125,0.011719 0.2929687,0.023437 0.3515625,0.023437 l 1.5234375,3.15234375 h 2.2265625 z m 0,0"
       style="fill:#e41a1c;fill-opacity:1;fill-rule:nonzero;stroke:none"
       aria-label="ð‘¹"
       transform="matrix(1.3333333,0,0,1.3333333,162.548,59.017333)" />
    <path
       id="path41"
       d="m 182.72073,-4.5356 c 3.72609,3.6712 2.29314,11.16733 -3.20045,16.74301 -5.49269,5.57463 -12.96727,7.11896 -16.69319,3.44889"
       style="fill:none;stroke:#377eb8;stroke-width:0.79701;stroke-linecap:butt;stroke-linejoin:miter;stroke-miterlimit:10;stroke-dasharray:none;stroke-opacity:1"
       transform="matrix(1.3333333,0,0,-1.3333333,57.738667,48.533333)" />
    <path
       id="path42"
       d="m 186.04445,10.53601 c -2.10977,5.62755 -9.76181,7.96173 -17.09104,5.21365 -4.74046,-1.77748 -8.39486,-5.3637 -9.58293,-9.40474 -0.58369,-1.98538 -0.53796,-3.97312 0.13254,-5.76132"
       style="fill:none;stroke:#377eb8;stroke-width:0.79701;stroke-linecap:butt;stroke-linejoin:miter;stroke-miterlimit:10;stroke-dasharray:none;stroke-opacity:1"
       transform="matrix(1.3333333,0,0,-1.3333333,57.738667,48.533333)" />
    <path
       id="path43"
       d="M 177.8621,18.78766 C 174.81142,19.96086 170.06,14.9896 167.24976,7.68434 164.43987,0.37993 164.6348,-6.49437 167.68501,-7.66753"
       style="fill:none;stroke:#377eb8;stroke-width:0.79701;stroke-linecap:butt;stroke-linejoin:miter;stroke-miterlimit:10;stroke-dasharray:none;stroke-opacity:1"
       transform="matrix(1.3333333,0,0,-1.3333333,57.738667,48.533333)" />
    <path
       id="path44"
       d="m 170.77934,19.59163 c 1.37368,0.19507 3.38019,-5.92894 4.48159,-13.67828 1.10139,-7.74933 0.88066,-14.18979 -0.49302,-14.38486"
       style="fill:none;stroke:#377eb8;stroke-width:0.79701;stroke-linecap:butt;stroke-linejoin:miter;stroke-miterlimit:10;stroke-dasharray:none;stroke-opacity:1"
       transform="matrix(1.3333333,0,0,-1.3333333,57.738667,48.533333)" />
    <path
       id="path45"
       d="m 161.82014,-3.43405 c 3.05869,-3.72435 10.44254,-5.21709 16.49198,-3.33399 2.33688,0.72747 4.23595,1.89724 5.41675,3.33609"
       style="fill:none;stroke:#377eb8;stroke-width:0.79701;stroke-linecap:butt;stroke-linejoin:miter;stroke-miterlimit:10;stroke-dasharray:none;stroke-opacity:1"
       transform="matrix(1.3333333,0,0,-1.3333333,57.738667,48.533333)" />
    <path
       id="path46"
       d="m 158.60051,5.56046 c -4.3e-4,-4.8191 6.34479,-8.7259 14.17238,-8.72616 5.06274,-1.6e-4 9.74278,1.66312 12.27463,4.36236 1.24392,1.32608 1.89946,2.83206 1.89946,4.36346"
       style="fill:none;stroke:#377eb8;stroke-width:0.79701;stroke-linecap:butt;stroke-linejoin:miter;stroke-miterlimit:10;stroke-dasharray:none;stroke-opacity:1"
       transform="matrix(1.3333333,0,0,-1.3333333,57.738667,48.533333)" />
    <path
       id="path47"
       d="m 161.81905,14.5526 c -3.05741,-3.72472 -0.63112,-8.27019 5.4189,-10.15248 6.05001,-1.8823 13.43315,-0.38854 16.49055,3.33619 1.75903,2.14304 1.75882,4.67507 -0.001,6.81784"
       style="fill:none;stroke:#377eb8;stroke-width:0.79701;stroke-linecap:butt;stroke-linejoin:miter;stroke-miterlimit:10;stroke-dasharray:none;stroke-opacity:1"
       transform="matrix(1.3333333,0,0,-1.3333333,57.738667,48.533333)" />
    <path
       id="path48"
       d="m 169.01823,11.53247 c 3.3192,-1.2769 7.69121,-0.65547 9.76528,1.388 2.07406,2.04349 1.06471,4.73514 -2.25451,6.01206 -3.31919,1.2769 -7.6912,0.65547 -9.76527,-1.388 -2.07406,-2.04349 -1.06469,-4.73516 2.2545,-6.01206 z"
       style="fill:none;stroke:#377eb8;stroke-width:0.79701;stroke-linecap:butt;stroke-linejoin:miter;stroke-miterlimit:10;stroke-dasharray:none;stroke-opacity:1"
       transform="matrix(1.3333333,0,0,-1.3333333,57.738667,48.533333)" />
    <path
       id="path49"
       d="m 186.94702,5.56003 c 0,7.82785 -6.34555,14.1734 -14.1734,14.1734 -7.82785,0 -14.1734,-6.34555 -14.1734,-14.1734 0,-7.82783 6.34555,-14.17339 14.1734,-14.17339 7.82785,0 14.1734,6.34556 14.1734,14.17339 z"
       style="fill:none;stroke:#377eb8;stroke-width:0.79701;stroke-linecap:butt;stroke-linejoin:miter;stroke-miterlimit:10;stroke-dasharray:none;stroke-opacity:1"
       transform="matrix(1.3333333,0,0,-1.3333333,57.738667,48.533333)" />
    <path
       id="path50"
       d="m 24.86768,-25.239 c 9.31526,9.17803 5.73286,27.9183 -8.00115,41.85755 -13.73172,13.93665 -32.4182,17.7975 -41.73299,8.62228"
       style="fill:none;stroke:#ff7f00;stroke-width:0.79701;stroke-linecap:butt;stroke-linejoin:miter;stroke-miterlimit:10;stroke-dasharray:none;stroke-opacity:1"
       transform="matrix(1.3333333,0,0,-1.3333333,57.738667,48.533333)" />
    <path
       id="path51"
       d="M 33.17696,12.43988 C 27.90253,26.50874 8.77237,32.34421 -9.55066,25.47398 -21.40184,21.03024 -30.53781,12.06471 -33.50798,1.96213 c -1.45927,-4.96346 -1.34496,-9.93291 0.33136,-14.40338"
       style="fill:none;stroke:#ff7f00;stroke-width:0.79701;stroke-linecap:butt;stroke-linejoin:miter;stroke-miterlimit:10;stroke-dasharray:none;stroke-opacity:1"
       transform="matrix(1.3333333,0,0,-1.3333333,57.738667,48.533333)" />
    <path
       id="path52"
       d="m 12.72122,33.06903 c -7.62671,2.933 -19.50529,-9.49519 -26.5309,-27.75836 -7.02475,-18.26105 -6.5374,-35.44684 1.08817,-38.3797"
       style="fill:none;stroke:#ff7f00;stroke-width:0.79701;stroke-linecap:butt;stroke-linejoin:miter;stroke-miterlimit:10;stroke-dasharray:none;stroke-opacity:1"
       transform="matrix(1.3333333,0,0,-1.3333333,57.738667,48.533333)" />
    <path
       id="path53"
       d="M -4.98573,35.07901 C -1.55153,35.56673 3.46474,20.2566 6.21825,0.88322 8.97174,-18.49014 8.41995,-34.59131 4.98573,-35.07901"
       style="fill:none;stroke:#ff7f00;stroke-width:0.79701;stroke-linecap:butt;stroke-linejoin:miter;stroke-miterlimit:10;stroke-dasharray:none;stroke-opacity:1"
       transform="matrix(1.3333333,0,0,-1.3333333,57.738667,48.533333)" />
    <path
       id="path54"
       d="m -27.38411,-22.48524 c 7.6467,-9.31089 26.10634,-13.04267 41.22992,-8.33492 5.84225,1.81866 10.58994,4.74306 13.54192,8.34021"
       style="fill:none;stroke:#ff7f00;stroke-width:0.79701;stroke-linecap:butt;stroke-linejoin:miter;stroke-miterlimit:10;stroke-dasharray:none;stroke-opacity:1"
       transform="matrix(1.3333333,0,0,-1.3333333,57.738667,48.533333)" />
    <path
       id="path55"
       d="m -35.43272,0.0011 c -0.0011,-12.04773 15.86195,-21.81479 35.43093,-21.81542 12.65687,-4.1e-4 24.357,4.15775 30.68659,10.90595 3.1098,3.31518 4.74866,7.08009 4.74864,10.90864"
       style="fill:none;stroke:#ff7f00;stroke-width:0.79701;stroke-linecap:butt;stroke-linejoin:miter;stroke-miterlimit:10;stroke-dasharray:none;stroke-opacity:1"
       transform="matrix(1.3333333,0,0,-1.3333333,57.738667,48.533333)" />
    <path
       id="path56"
       d="m -27.38673,22.4814 c -7.6435,-9.31186 -1.57779,-20.67549 13.54728,-25.38121 15.12506,-4.70575 33.5829,-0.97131 41.2264,8.34051 4.3976,5.35764 4.39703,11.68763 -0.0027,17.04462"
       style="fill:none;stroke:#ff7f00;stroke-width:0.79701;stroke-linecap:butt;stroke-linejoin:miter;stroke-miterlimit:10;stroke-dasharray:none;stroke-opacity:1"
       transform="matrix(1.3333333,0,0,-1.3333333,57.738667,48.533333)" />
    <path
       id="path57"
       d="m -9.38849,14.93109 c 8.29804,-3.19226 19.22804,-1.63872 24.41322,3.47003 5.18519,5.10875 2.66179,11.83788 -5.63624,15.03014 -8.29804,3.19226 -19.22804,1.6387 -24.41322,-3.47003 -5.18519,-5.10875 -2.66179,-11.83788 5.63624,-15.03014 z"
       style="fill:none;stroke:#ff7f00;stroke-width:0.79701;stroke-linecap:butt;stroke-linejoin:miter;stroke-miterlimit:10;stroke-dasharray:none;stroke-opacity:1"
       transform="matrix(1.3333333,0,0,-1.3333333,57.738667,48.533333)" />
    <path
       id="path58"
       d="M 35.43349,0 C 35.43349,19.56963 19.56963,35.43349 0,35.43349 -19.56963,35.43349 -35.43349,19.56963 -35.43349,0 c 0,-19.56963 15.86386,-35.43349 35.43349,-35.43349 19.56963,0 35.43349,15.86386 35.43349,35.43349 z"
       style="fill:none;stroke:#ff7f00;stroke-width:0.79701;stroke-linecap:butt;stroke-linejoin:miter;stroke-miterlimit:10;stroke-dasharray:none;stroke-opacity:1"
       transform="matrix(1.3333333,0,0,-1.3333333,57.738667,48.533333)" />
    <path
       id="path59"
       d="m 2.8606484,-1.2658203 c 0,0.29296874 -0.058594,0.43359374 -0.3515625,0.63281249 -0.1640625,0.10546875 -0.375,0.15234375 -0.5742187,0.15234375 -0.3867188,0 -0.6914063,-0.234375 -0.6914063,-0.76171874 0,-0.3164063 0.1054688,-0.5507813 0.3398438,-0.7734375 0.2460937,-0.2226563 0.65625,-0.4335938 1.2773437,-0.65625 z m 1.546875,0.60937499 c -0.1757812,0.140625 -0.2695312,0.1875 -0.4335937,0.1875 -0.1757813,0 -0.3046875,-0.19921875 -0.3046875,-0.65624999 v -1.8984375 c 0,-0.609375 -0.046875,-0.8203125 -0.28125,-1.1132813 -0.234375,-0.28125 -0.6210938,-0.4453125 -1.171875,-0.4453125 -0.4570313,0 -0.8671875,0.1171875 -1.1484375,0.2929688 -0.35156251,0.2226562 -0.50390626,0.5390625 -0.50390626,0.796875 0,0.2695312 0.2109375,0.46875 0.421875,0.46875 0.25781246,0 0.45703126,-0.2226563 0.45703126,-0.4101563 0,-0.2109375 -0.058594,-0.2460937 -0.058594,-0.421875 0,-0.2695312 0.3046875,-0.4921875 0.703125,-0.4921875 0.4453125,0 0.7734375,0.28125 0.7734375,0.9023438 v 0.5390625 c -1.125,0.4101562 -1.5,0.609375 -1.7929687,0.8085937 -0.38671876,0.2578125 -0.70312501,0.6445313 -0.70312501,1.16015629 0,0.65625 0.43359375,1.04296875 1.05468751,1.04296875 0.421875,0 0.9140625,-0.140625 1.4414062,-0.73828125 h 0.011719 c 0.046875,0.52734375 0.2695312,0.73828125 0.6328125,0.73828125 0.3398437,0 0.5976562,-0.1054687525 0.9023437,-0.48046875 z M 9.2502969,-1.953125e-4 V -0.15253906 c -0.4804688,-0.046875 -0.609375,-0.15234375 -0.609375,-0.69140625 V -3.0470703 c 0,-0.984375 -0.4101563,-1.5351563 -1.171875,-1.5351563 -0.4570313,0 -0.9140625,0.2226563 -1.4296875,0.8085938 h -0.011719 v -0.7734375 l -0.082031,-0.035156 c -0.4921875,0.1757813 -0.8203125,0.2929688 -1.359375,0.4453125 v 0.1757813 c 0.070312,-0.035156 0.1757812,-0.046875 0.28125,-0.046875 0.28125,0 0.3515625,0.1640625 0.3515625,0.65625 v 2.41406249 c 0,0.5859375 -0.1054688,0.75 -0.6210938,0.78515625 v 0.1523437475 h 2.109375 V -0.15253906 c -0.515625,-0.0351563 -0.65625,-0.17578125 -0.65625,-0.5625 V -3.4689453 c 0.46875,-0.4453125 0.703125,-0.5625 1.03125,-0.5625 0.4921875,0 0.7265625,0.2929687 0.7265625,1.0078125 v 1.9804687 c 0,0.65625004 -0.1171875,0.85546879 -0.6210937,0.89062504 L 7.1760781,-1.953125e-4 Z M 12.054008,-0.76191406 c -0.222656,0.2578125 -0.375,0.33984375 -0.597656,0.33984375 -0.363282,0 -0.515625,-0.2578125 -0.515625,-0.89062499 v -2.8476563 h 1.007812 v -0.328125 h -1.007812 v -1.1484375 c 0,-0.1054687 -0.02344,-0.1289062 -0.07031,-0.1289062 -0.05859,0.09375 -0.140625,0.1875 -0.199219,0.28125 -0.375,0.5390625 -0.7031247,0.9140625 -0.9609372,1.0664062 -0.1171875,0.070312 -0.1757812,0.1289063 -0.1757812,0.1875 0,0.023437 0.011719,0.046875 0.035156,0.070312 h 0.5390624 v 3 c 0,0.83203129 0.292969,1.26562504 0.867188,1.26562504 0.503906,0 0.878906,-0.24609375 1.207031,-0.76171875 z M 13.1585,-3.0822266 c 0.117188,-0.7382812 0.503906,-1.1367187 1.054688,-1.1367187 0.65625,0 0.867187,0.328125 0.984375,1.1367187 z m 3.082031,1.453125 c -0.492187,0.72656254 -0.867187,1.04296879 -1.535156,1.04296879 -0.457031,0 -0.832031,-0.17578125 -1.101562,-0.55078129 -0.363282,-0.4804687 -0.410157,-0.8671875 -0.46875,-1.6171875 h 3.070312 c -0.03516,-0.5390625 -0.140625,-0.8671875 -0.339844,-1.1367187 -0.316406,-0.4570313 -0.761718,-0.6914063 -1.382812,-0.6914063 -1.253906,0 -2.0625,1.0195313 -2.0625,2.4257813 0,1.37109374 0.714844,2.26171874 1.898437,2.26171874 0.996094,0 1.6875,-0.5859375 2.074219,-1.66406254 z m 5.185547,1.6289062875 V -0.15253906 c -0.480469,-0.046875 -0.609375,-0.15234375 -0.609375,-0.69140625 V -3.0470703 c 0,-0.984375 -0.410156,-1.5351563 -1.171875,-1.5351563 -0.457031,0 -0.914062,0.2226563 -1.429687,0.8085938 h -0.01172 v -0.7734375 l -0.08203,-0.035156 c -0.492188,0.1757813 -0.820313,0.2929688 -1.359375,0.4453125 v 0.1757813 c 0.07031,-0.035156 0.175781,-0.046875 0.28125,-0.046875 0.28125,0 0.351562,0.1640625 0.351562,0.65625 v 2.41406249 c 0,0.5859375 -0.105469,0.75 -0.621094,0.78515625 v 0.1523437475 h 2.109375 V -0.15253906 c -0.515625,-0.0351563 -0.65625,-0.17578125 -0.65625,-0.5625 V -3.4689453 c 0.46875,-0.4453125 0.703125,-0.5625 1.03125,-0.5625 0.492188,0 0.726563,0.2929687 0.726563,1.0078125 v 1.9804687 c 0,0.65625004 -0.117188,0.85546879 -0.621094,0.89062504 l -0.01172,0.1523437475 z m 4.980469,0 V -0.15253906 c -0.480469,-0.046875 -0.609375,-0.15234375 -0.609375,-0.69140625 V -3.0470703 c 0,-0.984375 -0.410156,-1.5351563 -1.171875,-1.5351563 -0.457031,0 -0.914063,0.2226563 -1.429688,0.8085938 h -0.01172 v -0.7734375 l -0.08203,-0.035156 c -0.492187,0.1757813 -0.820312,0.2929688 -1.359375,0.4453125 v 0.1757813 c 0.07031,-0.035156 0.175782,-0.046875 0.28125,-0.046875 0.28125,0 0.351563,0.1640625 0.351563,0.65625 v 2.41406249 c 0,0.5859375 -0.105469,0.75 -0.621094,0.78515625 v 0.1523437475 h 2.109375 V -0.15253906 c -0.515625,-0.0351563 -0.65625,-0.17578125 -0.65625,-0.5625 V -3.4689453 c 0.46875,-0.4453125 0.703125,-0.5625 1.03125,-0.5625 0.492188,0 0.726563,0.2929687 0.726563,1.0078125 v 1.9804687 c 0,0.65625004 -0.117188,0.85546879 -0.621094,0.89062504 l -0.01172,0.1523437475 z M 29.421195,-1.2658203 c 0,0.29296874 -0.05859,0.43359374 -0.351562,0.63281249 -0.164063,0.10546875 -0.375,0.15234375 -0.574219,0.15234375 -0.386719,0 -0.691406,-0.234375 -0.691406,-0.76171874 0,-0.3164063 0.105469,-0.5507813 0.339844,-0.7734375 0.246093,-0.2226563 0.65625,-0.4335938 1.277343,-0.65625 z m 1.546875,0.60937499 c -0.175781,0.140625 -0.269531,0.1875 -0.433593,0.1875 -0.175782,0 -0.304688,-0.19921875 -0.304688,-0.65624999 v -1.8984375 c 0,-0.609375 -0.04687,-0.8203125 -0.28125,-1.1132813 -0.234375,-0.28125 -0.621094,-0.4453125 -1.171875,-0.4453125 -0.457031,0 -0.867187,0.1171875 -1.148437,0.2929688 -0.351563,0.2226562 -0.503907,0.5390625 -0.503907,0.796875 0,0.2695312 0.210938,0.46875 0.421875,0.46875 0.257813,0 0.457032,-0.2226563 0.457032,-0.4101563 0,-0.2109375 -0.05859,-0.2460937 -0.05859,-0.421875 0,-0.2695312 0.304687,-0.4921875 0.703125,-0.4921875 0.445312,0 0.773437,0.28125 0.773437,0.9023438 v 0.5390625 c -1.125,0.4101562 -1.5,0.609375 -1.792968,0.8085937 -0.386719,0.2578125 -0.703125,0.6445313 -0.703125,1.16015629 0,0.65625 0.433593,1.04296875 1.054687,1.04296875 0.421875,0 0.914063,-0.140625 1.441406,-0.73828125 h 0.01172 c 0.04687,0.52734375 0.269531,0.73828125 0.632813,0.73828125 0.339843,0 0.597656,-0.1054687525 0.902343,-0.48046875 z m 6.433594,0.6562499975 V -0.15253906 c -0.75,0 -0.949219,-0.17578125 -0.949219,-0.609375 V -6.7033203 l -0.08203,-0.035156 -1.792969,0.9140625 v 0.140625 l 0.269532,-0.1054687 c 0.1875,-0.070312 0.351562,-0.1171875 0.457031,-0.1171875 0.199219,0 0.292969,0.1523437 0.292969,0.4921875 v 4.46484374 c 0,0.55078125 -0.210938,0.76171875 -0.949219,0.796875 v 0.1523437475 z m 0,0"
       style="fill:#ff7f00;fill-opacity:1;fill-rule:nonzero;stroke:none"
       aria-label="antenna1"
       transform="matrix(1.3333333,0,0,1.3333333,94.205333,90.566667)" />
    <path
       id="path60"
       d="m 2.8582891,-1.2669297 c 0,0.29296876 -0.058594,0.43359376 -0.3515625,0.63281251 -0.1640625,0.10546875 -0.375,0.15234375 -0.5742188,0.15234375 -0.3867187,0 -0.6914062,-0.234375 -0.6914062,-0.76171876 0,-0.3164062 0.1054687,-0.5507812 0.3398437,-0.7734375 0.2460938,-0.2226562 0.65625,-0.4335937 1.2773438,-0.65625 z m 1.546875,0.60937501 c -0.1757813,0.140625 -0.2695313,0.1875 -0.4335938,0.1875 -0.1757812,0 -0.3046875,-0.19921875 -0.3046875,-0.65625001 v -1.8984375 c 0,-0.609375 -0.046875,-0.8203125 -0.28125,-1.1132812 -0.234375,-0.28125 -0.6210937,-0.4453125 -1.171875,-0.4453125 -0.4570312,0 -0.8671875,0.1171875 -1.1484375,0.2929687 -0.35156249,0.2226563 -0.50390624,0.5390625 -0.50390624,0.796875 0,0.2695313 0.2109375,0.46875 0.421875,0.46875 0.25781254,0 0.45703124,-0.2226562 0.45703124,-0.4101562 0,-0.2109375 -0.058594,-0.2460938 -0.058594,-0.421875 0,-0.2695313 0.3046875,-0.4921875 0.703125,-0.4921875 0.4453125,0 0.7734375,0.28125 0.7734375,0.9023437 v 0.5390625 c -1.125,0.4101563 -1.5,0.609375 -1.7929688,0.8085938 -0.38671874,0.2578125 -0.70312499,0.6445312 -0.70312499,1.16015621 0,0.65625 0.43359375,1.04296875 1.05468749,1.04296875 0.421875,0 0.9140625,-0.140625 1.4414063,-0.73828125 h 0.011719 c 0.046875,0.52734375 0.2695313,0.73828125 0.6328125,0.73828125 0.3398438,0 0.5976563,-0.10546875 0.9023438,-0.48046875 z m 4.8457031,0.65625 v -0.15234375 c -0.4804688,-0.046875 -0.609375,-0.15234375 -0.609375,-0.69140625 V -3.0481797 c 0,-0.984375 -0.4101563,-1.5351562 -1.171875,-1.5351562 -0.4570313,0 -0.9140625,0.2226562 -1.4296875,0.8085937 h -0.011719 v -0.7734375 l -0.082031,-0.035156 c -0.4921875,0.1757812 -0.8203125,0.2929687 -1.359375,0.4453125 v 0.1757812 c 0.070312,-0.035156 0.1757812,-0.046875 0.28125,-0.046875 0.28125,0 0.3515625,0.1640625 0.3515625,0.65625 v 2.41406251 c 0,0.5859375 -0.1054688,0.75 -0.6210938,0.78515625 v 0.15234375 h 2.109375 v -0.15234375 c -0.515625,-0.0351563 -0.65625,-0.17578125 -0.65625,-0.5625 V -3.4700547 c 0.46875,-0.4453125 0.703125,-0.5625 1.03125,-0.5625 0.4921875,0 0.7265625,0.2929688 0.7265625,1.0078125 v 1.9804688 c 0,0.65624996 -0.1171875,0.85546871 -0.6210937,0.89062496 l -0.011719,0.15234375 z m 2.8037108,-0.76171875 c -0.222656,0.2578125 -0.375,0.33984375 -0.597656,0.33984375 -0.363281,0 -0.515625,-0.2578125 -0.515625,-0.89062501 v -2.8476562 h 1.007812 v -0.328125 h -1.007812 v -1.1484375 c 0,-0.1054688 -0.02344,-0.1289063 -0.07031,-0.1289063 -0.05859,0.09375 -0.140625,0.1875 -0.199218,0.28125 -0.375,0.5390625 -0.7031254,0.9140625 -0.9609379,1.0664063 -0.1171875,0.070312 -0.1757812,0.1289062 -0.1757812,0.1875 0,0.023437 0.011719,0.046875 0.035156,0.070312 h 0.5390631 v 3 c 0,0.83203121 0.292968,1.26562496 0.867187,1.26562496 0.503906,0 0.878906,-0.24609375 1.207031,-0.76171875 z M 13.15907,-3.0833359 c 0.117188,-0.7382813 0.503907,-1.1367188 1.054688,-1.1367188 0.65625,0 0.867187,0.328125 0.984375,1.1367188 z m 3.082032,1.453125 c -0.492188,0.72656246 -0.867188,1.04296871 -1.535157,1.04296871 -0.457031,0 -0.832031,-0.17578125 -1.101562,-0.55078121 -0.363281,-0.4804688 -0.410156,-0.8671875 -0.46875,-1.6171875 h 3.070312 c -0.03516,-0.5390625 -0.140625,-0.8671875 -0.339843,-1.1367188 -0.316407,-0.4570312 -0.761719,-0.6914062 -1.382813,-0.6914062 -1.253906,0 -2.0625,1.0195312 -2.0625,2.4257812 0,1.37109376 0.714844,2.26171876 1.898438,2.26171876 0.996093,0 1.6875,-0.5859375 2.074218,-1.66406246 z m 5.185546,1.62890621 v -0.15234375 c -0.480468,-0.046875 -0.609375,-0.15234375 -0.609375,-0.69140625 V -3.0481797 c 0,-0.984375 -0.410156,-1.5351562 -1.171875,-1.5351562 -0.457031,0 -0.914062,0.2226562 -1.429687,0.8085937 h -0.01172 v -0.7734375 l -0.08203,-0.035156 c -0.492188,0.1757812 -0.820313,0.2929687 -1.359375,0.4453125 v 0.1757812 c 0.07031,-0.035156 0.175781,-0.046875 0.28125,-0.046875 0.28125,0 0.351562,0.1640625 0.351562,0.65625 v 2.41406251 c 0,0.5859375 -0.105468,0.75 -0.621093,0.78515625 v 0.15234375 h 2.109375 v -0.15234375 c -0.515625,-0.0351563 -0.65625,-0.17578125 -0.65625,-0.5625 V -3.4700547 c 0.46875,-0.4453125 0.703125,-0.5625 1.03125,-0.5625 0.492187,0 0.726562,0.2929688 0.726562,1.0078125 v 1.9804688 c 0,0.65624996 -0.117187,0.85546871 -0.621094,0.89062496 l -0.01172,0.15234375 z m 4.980469,0 v -0.15234375 c -0.480469,-0.046875 -0.609375,-0.15234375 -0.609375,-0.69140625 V -3.0481797 c 0,-0.984375 -0.410156,-1.5351562 -1.171875,-1.5351562 -0.457031,0 -0.914062,0.2226562 -1.429687,0.8085937 h -0.01172 v -0.7734375 l -0.08203,-0.035156 c -0.492188,0.1757812 -0.820313,0.2929687 -1.359375,0.4453125 v 0.1757812 c 0.07031,-0.035156 0.175781,-0.046875 0.28125,-0.046875 0.28125,0 0.351562,0.1640625 0.351562,0.65625 v 2.41406251 c 0,0.5859375 -0.105469,0.75 -0.621094,0.78515625 v 0.15234375 h 2.109375 v -0.15234375 c -0.515625,-0.0351563 -0.65625,-0.17578125 -0.65625,-0.5625 V -3.4700547 c 0.46875,-0.4453125 0.703125,-0.5625 1.03125,-0.5625 0.492188,0 0.726563,0.2929688 0.726563,1.0078125 v 1.9804688 c 0,0.65624996 -0.117188,0.85546871 -0.621094,0.89062496 l -0.01172,0.15234375 z m 3.011719,-1.26562501 c 0,0.29296876 -0.05859,0.43359376 -0.351563,0.63281251 -0.164062,0.10546875 -0.375,0.15234375 -0.574218,0.15234375 -0.386719,0 -0.691407,-0.234375 -0.691407,-0.76171876 0,-0.3164062 0.105469,-0.5507812 0.339844,-0.7734375 0.246094,-0.2226562 0.65625,-0.4335937 1.277344,-0.65625 z m 1.546875,0.60937501 c -0.175781,0.140625 -0.269531,0.1875 -0.433594,0.1875 -0.175781,0 -0.304687,-0.19921875 -0.304687,-0.65625001 v -1.8984375 c 0,-0.609375 -0.04687,-0.8203125 -0.28125,-1.1132812 -0.234375,-0.28125 -0.621094,-0.4453125 -1.171875,-0.4453125 -0.457032,0 -0.867188,0.1171875 -1.148438,0.2929687 -0.351562,0.2226563 -0.503906,0.5390625 -0.503906,0.796875 0,0.2695313 0.210937,0.46875 0.421875,0.46875 0.257812,0 0.457031,-0.2226562 0.457031,-0.4101562 0,-0.2109375 -0.05859,-0.2460938 -0.05859,-0.421875 0,-0.2695313 0.304688,-0.4921875 0.703125,-0.4921875 0.445313,0 0.773438,0.28125 0.773438,0.9023437 v 0.5390625 c -1.125,0.4101563 -1.5,0.609375 -1.792969,0.8085938 -0.386719,0.2578125 -0.703125,0.6445312 -0.703125,1.16015621 0,0.65625 0.433594,1.04296875 1.054688,1.04296875 0.421875,0 0.914062,-0.140625 1.441406,-0.73828125 h 0.01172 c 0.04687,0.52734375 0.269531,0.73828125 0.632812,0.73828125 0.339844,0 0.597656,-0.10546875 0.902344,-0.48046875 z m 7.230469,-0.70312501 -0.140625,-0.070312 c -0.328125,0.56250001 -0.539063,0.66796876 -0.960938,0.66796876 H 34.774305 L 36.41493,-2.5091172 c 0.878906,-0.9375 1.277343,-1.6875 1.277343,-2.4726562 0,-0.984375 -0.726562,-1.7578125 -1.851562,-1.7578125 -1.21875,0 -1.863281,0.8203125 -2.0625,1.9921875 l 0.199219,0.046875 c 0.398437,-0.984375 0.75,-1.3007813 1.464843,-1.3007813 0.855469,0 1.382813,0.5039063 1.382813,1.40625 0,0.84375 -0.351563,1.6054688 -1.289063,2.5898438 l -1.769531,1.88671871 v 0.1171875 h 3.890625 z m 0,0"
       style="fill:#377eb8;fill-opacity:1;fill-rule:nonzero;stroke:none"
       aria-label="antenna2"
       transform="matrix(1.3333333,0,0,1.3333333,256.45067,74.185333)" />
  </g>
</svg>
