<?xml version="1.0" encoding="UTF-8"?>
<svg xmlns="http://www.w3.org/2000/svg" xmlns:xlink="http://www.w3.org/1999/xlink" width="127.295pt" height="118.875pt" viewBox="0 0 127.295 118.875" version="1.1">
<defs>
<clipPath id="clip1">
  <path d="M 9 0 L 127.296875 0 L 127.296875 118.875 L 9 118.875 Z M 9 0 "/>
</clipPath>
<clipPath id="clip2">
  <path d="M 0 0 L 127.296875 0 L 127.296875 102 L 0 102 Z M 0 0 "/>
</clipPath>
<clipPath id="clip3">
  <path d="M 9 0 L 107 0 L 107 118.875 L 9 118.875 Z M 9 0 "/>
</clipPath>
<clipPath id="clip4">
  <path d="M 37 0 L 98 0 L 98 118.875 L 37 118.875 Z M 37 0 "/>
</clipPath>
<clipPath id="clip5">
  <path d="M 0 70 L 127.296875 70 L 127.296875 118.875 L 0 118.875 Z M 0 70 "/>
</clipPath>
<clipPath id="clip6">
  <path d="M 0 37 L 127.296875 37 L 127.296875 111 L 0 111 Z M 0 37 "/>
</clipPath>
<clipPath id="clip7">
  <path d="M 0 4 L 127.296875 4 L 127.296875 83 L 0 83 Z M 0 4 "/>
</clipPath>
<clipPath id="clip8">
  <path d="M 80 6 L 127.296875 6 L 127.296875 53 L 80 53 Z M 80 6 "/>
</clipPath>
<clipPath id="clip9">
  <path d="M 81 0 L 127.296875 0 L 127.296875 45 L 81 45 Z M 81 0 "/>
</clipPath>
<clipPath id="clip10">
  <path d="M 84 32 L 127.296875 32 L 127.296875 80 L 84 80 Z M 84 32 "/>
</clipPath>
<clipPath id="clip11">
  <path d="M 92 23 L 127.296875 23 L 127.296875 71 L 92 71 Z M 92 23 "/>
</clipPath>
<clipPath id="clip12">
  <path d="M 93 13 L 127.296875 13 L 127.296875 60 L 93 60 Z M 93 13 "/>
</clipPath>
<clipPath id="clip13">
  <path d="M 88 52 L 127.296875 52 L 127.296875 100 L 88 100 Z M 88 52 "/>
</clipPath>
<clipPath id="clip14">
  <path d="M 96 42 L 127.296875 42 L 127.296875 90 L 96 90 Z M 96 42 "/>
</clipPath>
<clipPath id="clip15">
  <path d="M 11 76 L 59 76 L 59 118.875 L 11 118.875 Z M 11 76 "/>
</clipPath>
<clipPath id="clip16">
  <path d="M 30 80 L 77 80 L 77 118.875 L 30 118.875 Z M 30 80 "/>
</clipPath>
<clipPath id="clip17">
  <path d="M 50 81 L 98 81 L 98 118.875 L 50 118.875 Z M 50 81 "/>
</clipPath>
<clipPath id="clip18">
  <path d="M 69 77 L 117 77 L 117 118.875 L 69 118.875 Z M 69 77 "/>
</clipPath>
<clipPath id="clip19">
  <path d="M 84 70 L 127.296875 70 L 127.296875 117 L 84 117 Z M 84 70 "/>
</clipPath>
<clipPath id="clip20">
  <path d="M 7 81 L 55 81 L 55 118.875 L 7 118.875 Z M 7 81 "/>
</clipPath>
<clipPath id="clip21">
  <path d="M 18 87 L 66 87 L 66 118.875 L 18 118.875 Z M 18 87 "/>
</clipPath>
<clipPath id="clip22">
  <path d="M 32 90 L 80 90 L 80 118.875 L 32 118.875 Z M 32 90 "/>
</clipPath>
<clipPath id="clip23">
  <path d="M 48 90 L 96 90 L 96 118.875 L 48 118.875 Z M 48 90 "/>
</clipPath>
<clipPath id="clip24">
  <path d="M 63 88 L 110 88 L 110 118.875 L 63 118.875 Z M 63 88 "/>
</clipPath>
<clipPath id="clip25">
  <path d="M 74 82 L 122 82 L 122 118.875 L 74 118.875 Z M 74 82 "/>
</clipPath>
</defs>
<g id="surface1">
<g clip-path="url(#clip1)" clip-rule="nonzero">
<path style="fill:none;stroke-width:1.59404;stroke-linecap:butt;stroke-linejoin:miter;stroke:rgb(21.569824%,49.412537%,72.155762%);stroke-opacity:1;stroke-miterlimit:10;" d="M 32.939437 -46.136656 C 51.017562 -33.230406 50.919906 -2.113219 32.7285 23.36725 C 14.537094 48.847719 -14.86525 59.039125 -32.939469 46.132875 " transform="matrix(1,0,0,-1,64.959,59.836)"/>
</g>
<g clip-path="url(#clip2)" clip-rule="nonzero">
<path style="fill:none;stroke-width:1.59404;stroke-linecap:butt;stroke-linejoin:miter;stroke:rgb(21.569824%,49.412537%,72.155762%);stroke-opacity:1;stroke-miterlimit:10;" d="M 53.462875 18.847719 C 44.583969 44.031312 13.451156 56.007875 -16.072281 45.597719 C -35.169938 38.863344 -49.759781 23.945375 -54.337906 6.472719 C -56.584 -2.109313 -56.283219 -10.8515 -53.459 -18.8515 " transform="matrix(1,0,0,-1,64.959,59.836)"/>
</g>
<g clip-path="url(#clip3)" clip-rule="nonzero">
<path style="fill:none;stroke-width:1.59404;stroke-linecap:butt;stroke-linejoin:miter;stroke:rgb(21.569824%,49.412537%,72.155762%);stroke-opacity:1;stroke-miterlimit:10;" d="M 18.732406 53.503969 C 4.052719 58.644594 -16.232438 38.855531 -26.576188 9.30475 C -33.267594 -9.808531 -34.388688 -29.246031 -29.509781 -41.683531 C -27.11525 -47.792906 -23.392594 -51.871031 -18.728531 -53.503844 " transform="matrix(1,0,0,-1,64.959,59.836)"/>
</g>
<g clip-path="url(#clip4)" clip-rule="nonzero">
<path style="fill:none;stroke-width:1.59404;stroke-linecap:butt;stroke-linejoin:miter;stroke:rgb(21.569824%,49.412537%,72.155762%);stroke-opacity:1;stroke-miterlimit:10;" d="M -4.978531 56.468812 C -0.287125 56.882875 5.744125 31.933656 8.490219 0.746156 C 11.240219 -30.433531 9.666 -56.054625 4.9785 -56.468688 " transform="matrix(1,0,0,-1,64.959,59.836)"/>
</g>
<g clip-path="url(#clip5)" clip-rule="nonzero">
<path style="fill:none;stroke-width:1.59404;stroke-linecap:butt;stroke-linejoin:miter;stroke:rgb(21.569824%,49.412537%,72.155762%);stroke-opacity:1;stroke-miterlimit:10;" d="M -46.283219 -32.730406 C -37.248063 -45.511656 -9.197281 -52.210875 16.365219 -47.691344 C 30.341781 -45.218688 41.345687 -39.718688 46.287094 -32.730406 " transform="matrix(1,0,0,-1,64.959,59.836)"/>
</g>
<g clip-path="url(#clip6)" clip-rule="nonzero">
<path style="fill:none;stroke-width:1.59404;stroke-linecap:butt;stroke-linejoin:miter;stroke:rgb(21.569824%,49.412537%,72.155762%);stroke-opacity:1;stroke-miterlimit:10;" d="M -56.689469 0.0000625 C -56.689469 -15.652281 -31.310563 -28.343688 -0.00196875 -28.343688 C 20.248031 -28.343688 38.966781 -22.941344 49.095687 -14.171813 C 54.068344 -9.863219 56.689437 -4.972594 56.689437 0.00396875 " transform="matrix(1,0,0,-1,64.959,59.836)"/>
</g>
<g clip-path="url(#clip7)" clip-rule="nonzero">
<path style="fill:none;stroke-width:1.59404;stroke-linecap:butt;stroke-linejoin:miter;stroke:rgb(21.569824%,49.412537%,72.155762%);stroke-opacity:1;stroke-miterlimit:10;" d="M -46.287125 32.730531 C -55.322281 19.949281 -41.92775 5.925844 -16.36525 1.406312 C 9.19725 -3.113219 37.248031 3.586 46.287094 16.36725 C 50.029281 21.660219 50.029281 27.441469 46.283187 32.734437 " transform="matrix(1,0,0,-1,64.959,59.836)"/>
</g>
<path style="fill:none;stroke-width:1.59404;stroke-linecap:butt;stroke-linejoin:miter;stroke:rgb(21.569824%,49.412537%,72.155762%);stroke-opacity:1;stroke-miterlimit:10;" d="M -16.259781 30.910219 C -3.435563 26.421937 14.240219 27.976625 23.220687 34.390687 C 32.19725 40.800844 29.080062 49.640687 16.25975 54.128969 C 3.435531 58.61725 -14.24025 57.058656 -23.220719 50.6485 C -32.197281 44.238344 -29.080094 35.3985 -16.259781 30.910219 Z M -16.259781 30.910219 " transform="matrix(1,0,0,-1,64.959,59.836)"/>
<path style="fill:none;stroke-width:1.59404;stroke-linecap:butt;stroke-linejoin:miter;stroke:rgb(21.569824%,49.412537%,72.155762%);stroke-opacity:1;stroke-miterlimit:10;" d="M 56.689437 0.0000625 C 56.689437 31.308656 31.310531 56.691469 0.0019375 56.691469 C -31.310563 56.691469 -56.689469 31.308656 -56.689469 0.0000625 C -56.689469 -31.308531 -31.310563 -56.691344 0.0019375 -56.691344 C 31.310531 -56.691344 56.689437 -31.308531 56.689437 0.0000625 Z M 56.689437 0.0000625 " transform="matrix(1,0,0,-1,64.959,59.836)"/>
<path style="fill-rule:nonzero;fill:rgb(100%,49.804688%,0%);fill-opacity:1;stroke-width:1.59404;stroke-linecap:butt;stroke-linejoin:miter;stroke:rgb(100%,49.804688%,0%);stroke-opacity:1;stroke-miterlimit:10;" d="M 0.798812 49.093812 C 0.798812 49.535219 0.439437 49.890687 0.0019375 49.890687 C -0.439469 49.890687 -0.798844 49.535219 -0.798844 49.093812 C -0.798844 48.656312 -0.439469 48.296937 0.0019375 48.296937 C 0.439437 48.296937 0.798812 48.656312 0.798812 49.093812 Z M 0.798812 49.093812 " transform="matrix(1,0,0,-1,64.959,59.836)"/>
<path style="fill-rule:nonzero;fill:rgb(100%,49.804688%,0%);fill-opacity:1;stroke-width:1.59404;stroke-linecap:butt;stroke-linejoin:miter;stroke:rgb(100%,49.804688%,0%);stroke-opacity:1;stroke-miterlimit:10;" d="M 0.798812 49.093812 C 0.798812 49.535219 0.439437 49.890687 0.0019375 49.890687 C -0.439469 49.890687 -0.798844 49.535219 -0.798844 49.093812 C -0.798844 48.656312 -0.439469 48.296937 0.0019375 48.296937 C 0.439437 48.296937 0.798812 48.656312 0.798812 49.093812 Z M 0.798812 49.093812 " transform="matrix(1,0,0,-1,64.959,59.836)"/>
<path style="fill-rule:nonzero;fill:rgb(100%,49.804688%,0%);fill-opacity:1;stroke-width:1.59404;stroke-linecap:butt;stroke-linejoin:miter;stroke:rgb(100%,49.804688%,0%);stroke-opacity:1;stroke-miterlimit:10;" d="M -11.6465 36.472719 C -11.6465 36.910219 -12.001969 37.269594 -12.443375 37.269594 C -12.884781 37.269594 -13.24025 36.910219 -13.24025 36.472719 C -13.24025 36.031312 -12.884781 35.675844 -12.443375 35.675844 C -12.001969 35.675844 -11.6465 36.031312 -11.6465 36.472719 Z M -11.6465 36.472719 " transform="matrix(1,0,0,-1,64.959,59.836)"/>
<path style="fill-rule:nonzero;fill:rgb(100%,49.804688%,0%);fill-opacity:1;stroke-width:1.59404;stroke-linecap:butt;stroke-linejoin:miter;stroke:rgb(100%,49.804688%,0%);stroke-opacity:1;stroke-miterlimit:10;" d="M -3.8965 34.769594 C -3.8965 35.207094 -4.255875 35.566469 -4.693375 35.566469 C -5.134781 35.566469 -5.494156 35.207094 -5.494156 34.769594 C -5.494156 34.328187 -5.134781 33.968812 -4.693375 33.968812 C -4.255875 33.968812 -3.8965 34.328187 -3.8965 34.769594 Z M -3.8965 34.769594 " transform="matrix(1,0,0,-1,64.959,59.836)"/>
<path style="fill-rule:nonzero;fill:rgb(100%,49.804688%,0%);fill-opacity:1;stroke-width:1.59404;stroke-linecap:butt;stroke-linejoin:miter;stroke:rgb(100%,49.804688%,0%);stroke-opacity:1;stroke-miterlimit:10;" d="M 4.564437 34.675844 C 4.564437 35.113344 4.208969 35.472719 3.767562 35.472719 C 3.326156 35.472719 2.970687 35.113344 2.970687 34.675844 C 2.970687 34.234437 3.326156 33.878969 3.767562 33.878969 C 4.208969 33.878969 4.564437 34.234437 4.564437 34.675844 Z M 4.564437 34.675844 " transform="matrix(1,0,0,-1,64.959,59.836)"/>
<path style="fill-rule:nonzero;fill:rgb(100%,49.804688%,0%);fill-opacity:1;stroke-width:1.59404;stroke-linecap:butt;stroke-linejoin:miter;stroke:rgb(100%,49.804688%,0%);stroke-opacity:1;stroke-miterlimit:10;" d="M 12.451156 36.211 C 12.451156 36.6485 12.095687 37.007875 11.654281 37.007875 C 11.216781 37.007875 10.857406 36.6485 10.857406 36.211 C 10.857406 35.769594 11.216781 35.414125 11.654281 35.414125 C 12.095687 35.414125 12.451156 35.769594 12.451156 36.211 Z M 12.451156 36.211 " transform="matrix(1,0,0,-1,64.959,59.836)"/>
<path style="fill-rule:nonzero;fill:rgb(100%,49.804688%,0%);fill-opacity:1;stroke-width:1.59404;stroke-linecap:butt;stroke-linejoin:miter;stroke:rgb(100%,49.804688%,0%);stroke-opacity:1;stroke-miterlimit:10;" d="M 18.568344 39.136781 C 18.568344 39.574281 18.208969 39.933656 17.771469 39.933656 C 17.330062 39.933656 16.974594 39.574281 16.974594 39.136781 C 16.974594 38.695375 17.330062 38.339906 17.771469 38.339906 C 18.208969 38.339906 18.568344 38.695375 18.568344 39.136781 Z M 18.568344 39.136781 " transform="matrix(1,0,0,-1,64.959,59.836)"/>
<path style="fill-rule:nonzero;fill:rgb(100%,49.804688%,0%);fill-opacity:1;stroke-width:1.59404;stroke-linecap:butt;stroke-linejoin:miter;stroke:rgb(100%,49.804688%,0%);stroke-opacity:1;stroke-miterlimit:10;" d="M 21.974594 43.007875 C 21.974594 43.449281 21.619125 43.80475 21.177719 43.80475 C 20.736312 43.80475 20.380844 43.449281 20.380844 43.007875 C 20.380844 42.570375 20.736312 42.211 21.177719 42.211 C 21.619125 42.211 21.974594 42.570375 21.974594 43.007875 Z M 21.974594 43.007875 " transform="matrix(1,0,0,-1,64.959,59.836)"/>
<path style="fill-rule:nonzero;fill:rgb(100%,49.804688%,0%);fill-opacity:1;stroke-width:1.59404;stroke-linecap:butt;stroke-linejoin:miter;stroke:rgb(100%,49.804688%,0%);stroke-opacity:1;stroke-miterlimit:10;" d="M 22.162094 47.238344 C 22.162094 47.67975 21.802719 48.035219 21.365219 48.035219 C 20.923812 48.035219 20.568344 47.67975 20.568344 47.238344 C 20.568344 46.800844 20.923812 46.441469 21.365219 46.441469 C 21.802719 46.441469 22.162094 46.800844 22.162094 47.238344 Z M 22.162094 47.238344 " transform="matrix(1,0,0,-1,64.959,59.836)"/>
<path style="fill-rule:nonzero;fill:rgb(100%,49.804688%,0%);fill-opacity:1;stroke-width:1.59404;stroke-linecap:butt;stroke-linejoin:miter;stroke:rgb(100%,49.804688%,0%);stroke-opacity:1;stroke-miterlimit:10;" d="M 19.091781 51.183656 C 19.091781 51.625062 18.736312 51.980531 18.294906 51.980531 C 17.8535 51.980531 17.498031 51.625062 17.498031 51.183656 C 17.498031 50.74225 17.8535 50.386781 18.294906 50.386781 C 18.736312 50.386781 19.091781 50.74225 19.091781 51.183656 Z M 19.091781 51.183656 " transform="matrix(1,0,0,-1,64.959,59.836)"/>
<path style="fill-rule:nonzero;fill:rgb(100%,49.804688%,0%);fill-opacity:1;stroke-width:1.59404;stroke-linecap:butt;stroke-linejoin:miter;stroke:rgb(100%,49.804688%,0%);stroke-opacity:1;stroke-miterlimit:10;" d="M 13.240219 54.24225 C 13.240219 54.683656 12.88475 55.039125 12.443344 55.039125 C 12.001937 55.039125 11.646469 54.683656 11.646469 54.24225 C 11.646469 53.800844 12.001937 53.445375 12.443344 53.445375 C 12.88475 53.445375 13.240219 53.800844 13.240219 54.24225 Z M 13.240219 54.24225 " transform="matrix(1,0,0,-1,64.959,59.836)"/>
<path style="fill-rule:nonzero;fill:rgb(100%,49.804688%,0%);fill-opacity:1;stroke-width:1.59404;stroke-linecap:butt;stroke-linejoin:miter;stroke:rgb(100%,49.804688%,0%);stroke-opacity:1;stroke-miterlimit:10;" d="M 5.494125 55.945375 C 5.494125 56.386781 5.13475 56.74225 4.693344 56.74225 C 4.255844 56.74225 3.896469 56.386781 3.896469 55.945375 C 3.896469 55.503969 4.255844 55.1485 4.693344 55.1485 C 5.13475 55.1485 5.494125 55.503969 5.494125 55.945375 Z M 5.494125 55.945375 " transform="matrix(1,0,0,-1,64.959,59.836)"/>
<path style="fill-rule:nonzero;fill:rgb(100%,49.804688%,0%);fill-opacity:1;stroke-width:1.59404;stroke-linecap:butt;stroke-linejoin:miter;stroke:rgb(100%,49.804688%,0%);stroke-opacity:1;stroke-miterlimit:10;" d="M -2.970719 56.039125 C -2.970719 56.480531 -3.326188 56.836 -3.767594 56.836 C -4.209 56.836 -4.564469 56.480531 -4.564469 56.039125 C -4.564469 55.597719 -4.209 55.24225 -3.767594 55.24225 C -3.326188 55.24225 -2.970719 55.597719 -2.970719 56.039125 Z M -2.970719 56.039125 " transform="matrix(1,0,0,-1,64.959,59.836)"/>
<path style="fill-rule:nonzero;fill:rgb(100%,49.804688%,0%);fill-opacity:1;stroke-width:1.59404;stroke-linecap:butt;stroke-linejoin:miter;stroke:rgb(100%,49.804688%,0%);stroke-opacity:1;stroke-miterlimit:10;" d="M -10.857438 54.503969 C -10.857438 54.945375 -11.216813 55.300844 -11.654313 55.300844 C -12.095719 55.300844 -12.451188 54.945375 -12.451188 54.503969 C -12.451188 54.062562 -12.095719 53.707094 -11.654313 53.707094 C -11.216813 53.707094 -10.857438 54.062562 -10.857438 54.503969 Z M -10.857438 54.503969 " transform="matrix(1,0,0,-1,64.959,59.836)"/>
<path style="fill-rule:nonzero;fill:rgb(100%,49.804688%,0%);fill-opacity:1;stroke-width:1.59404;stroke-linecap:butt;stroke-linejoin:miter;stroke:rgb(100%,49.804688%,0%);stroke-opacity:1;stroke-miterlimit:10;" d="M -16.974625 51.578187 C -16.974625 52.019594 -17.330094 52.375062 -17.7715 52.375062 C -18.209 52.375062 -18.568375 52.019594 -18.568375 51.578187 C -18.568375 51.136781 -18.209 50.781312 -17.7715 50.781312 C -17.330094 50.781312 -16.974625 51.136781 -16.974625 51.578187 Z M -16.974625 51.578187 " transform="matrix(1,0,0,-1,64.959,59.836)"/>
<path style="fill-rule:nonzero;fill:rgb(100%,49.804688%,0%);fill-opacity:1;stroke-width:1.59404;stroke-linecap:butt;stroke-linejoin:miter;stroke:rgb(100%,49.804688%,0%);stroke-opacity:1;stroke-miterlimit:10;" d="M -20.380875 47.703187 C -20.380875 48.144594 -20.736344 48.500062 -21.17775 48.500062 C -21.619156 48.500062 -21.974625 48.144594 -21.974625 47.703187 C -21.974625 47.265687 -21.619156 46.906312 -21.17775 46.906312 C -20.736344 46.906312 -20.380875 47.265687 -20.380875 47.703187 Z M -20.380875 47.703187 " transform="matrix(1,0,0,-1,64.959,59.836)"/>
<path style="fill-rule:nonzero;fill:rgb(100%,49.804688%,0%);fill-opacity:1;stroke-width:1.59404;stroke-linecap:butt;stroke-linejoin:miter;stroke:rgb(100%,49.804688%,0%);stroke-opacity:1;stroke-miterlimit:10;" d="M -20.568375 43.472719 C -20.568375 43.914125 -20.923844 44.269594 -21.36525 44.269594 C -21.80275 44.269594 -22.162125 43.914125 -22.162125 43.472719 C -22.162125 43.031312 -21.80275 42.675844 -21.36525 42.675844 C -20.923844 42.675844 -20.568375 43.031312 -20.568375 43.472719 Z M -20.568375 43.472719 " transform="matrix(1,0,0,-1,64.959,59.836)"/>
<path style="fill-rule:nonzero;fill:rgb(100%,49.804688%,0%);fill-opacity:1;stroke-width:1.59404;stroke-linecap:butt;stroke-linejoin:miter;stroke:rgb(100%,49.804688%,0%);stroke-opacity:1;stroke-miterlimit:10;" d="M -17.498063 39.527406 C -17.498063 39.968812 -17.853531 40.324281 -18.294938 40.324281 C -18.736344 40.324281 -19.091813 39.968812 -19.091813 39.527406 C -19.091813 39.089906 -18.736344 38.730531 -18.294938 38.730531 C -17.853531 38.730531 -17.498063 39.089906 -17.498063 39.527406 Z M -17.498063 39.527406 " transform="matrix(1,0,0,-1,64.959,59.836)"/>
<path style="fill-rule:nonzero;fill:rgb(100%,49.804688%,0%);fill-opacity:1;stroke-width:1.59404;stroke-linecap:butt;stroke-linejoin:miter;stroke:rgb(100%,49.804688%,0%);stroke-opacity:1;stroke-miterlimit:10;" d="M -32.041031 46.211 C -32.041031 46.652406 -32.3965 47.007875 -32.837906 47.007875 C -33.275406 47.007875 -33.634781 46.652406 -33.634781 46.211 C -33.634781 45.7735 -33.275406 45.414125 -32.837906 45.414125 C -32.3965 45.414125 -32.041031 45.7735 -32.041031 46.211 Z M -32.041031 46.211 " transform="matrix(1,0,0,-1,64.959,59.836)"/>
<path style="fill-rule:nonzero;fill:rgb(100%,49.804688%,0%);fill-opacity:1;stroke-width:1.59404;stroke-linecap:butt;stroke-linejoin:miter;stroke:rgb(100%,49.804688%,0%);stroke-opacity:1;stroke-miterlimit:10;" d="M -38.337906 39.05475 C -38.337906 39.49225 -38.693375 39.851625 -39.134781 39.851625 C -39.576188 39.851625 -39.931656 39.49225 -39.931656 39.05475 C -39.931656 38.613344 -39.576188 38.257875 -39.134781 38.257875 C -38.693375 38.257875 -38.337906 38.613344 -38.337906 39.05475 Z M -38.337906 39.05475 " transform="matrix(1,0,0,-1,64.959,59.836)"/>
<path style="fill-rule:nonzero;fill:rgb(100%,49.804688%,0%);fill-opacity:1;stroke-width:1.59404;stroke-linecap:butt;stroke-linejoin:miter;stroke:rgb(100%,49.804688%,0%);stroke-opacity:1;stroke-miterlimit:10;" d="M -38.681656 31.234437 C -38.681656 31.675844 -39.037125 32.031312 -39.478531 32.031312 C -39.916031 32.031312 -40.275406 31.675844 -40.275406 31.234437 C -40.275406 30.796937 -39.916031 30.437562 -39.478531 30.437562 C -39.037125 30.437562 -38.681656 30.796937 -38.681656 31.234437 Z M -38.681656 31.234437 " transform="matrix(1,0,0,-1,64.959,59.836)"/>
<path style="fill-rule:nonzero;fill:rgb(100%,49.804688%,0%);fill-opacity:1;stroke-width:1.59404;stroke-linecap:butt;stroke-linejoin:miter;stroke:rgb(100%,49.804688%,0%);stroke-opacity:1;stroke-miterlimit:10;" d="M -33.009781 23.945375 C -33.009781 24.386781 -33.36525 24.74225 -33.806656 24.74225 C -34.248063 24.74225 -34.603531 24.386781 -34.603531 23.945375 C -34.603531 23.507875 -34.248063 23.1485 -33.806656 23.1485 C -33.36525 23.1485 -33.009781 23.507875 -33.009781 23.945375 Z M -33.009781 23.945375 " transform="matrix(1,0,0,-1,64.959,59.836)"/>
<path style="fill-rule:nonzero;fill:rgb(100%,49.804688%,0%);fill-opacity:1;stroke-width:1.59404;stroke-linecap:butt;stroke-linejoin:miter;stroke:rgb(100%,49.804688%,0%);stroke-opacity:1;stroke-miterlimit:10;" d="M -22.197281 18.296937 C -22.197281 18.738344 -22.55275 19.093812 -22.994156 19.093812 C -23.431656 19.093812 -23.791031 18.738344 -23.791031 18.296937 C -23.791031 17.855531 -23.431656 17.500062 -22.994156 17.500062 C -22.55275 17.500062 -22.197281 17.855531 -22.197281 18.296937 Z M -22.197281 18.296937 " transform="matrix(1,0,0,-1,64.959,59.836)"/>
<path style="fill-rule:nonzero;fill:rgb(100%,49.804688%,0%);fill-opacity:1;stroke-width:1.59404;stroke-linecap:butt;stroke-linejoin:miter;stroke:rgb(100%,49.804688%,0%);stroke-opacity:1;stroke-miterlimit:10;" d="M -7.880875 15.1485 C -7.880875 15.589906 -8.236344 15.945375 -8.67775 15.945375 C -9.11525 15.945375 -9.474625 15.589906 -9.474625 15.1485 C -9.474625 14.707094 -9.11525 14.351625 -8.67775 14.351625 C -8.236344 14.351625 -7.880875 14.707094 -7.880875 15.1485 Z M -7.880875 15.1485 " transform="matrix(1,0,0,-1,64.959,59.836)"/>
<path style="fill-rule:nonzero;fill:rgb(100%,49.804688%,0%);fill-opacity:1;stroke-width:1.59404;stroke-linecap:butt;stroke-linejoin:miter;stroke:rgb(100%,49.804688%,0%);stroke-opacity:1;stroke-miterlimit:10;" d="M 7.75975 14.976625 C 7.75975 15.418031 7.400375 15.7735 6.958969 15.7735 C 6.521469 15.7735 6.162094 15.418031 6.162094 14.976625 C 6.162094 14.535219 6.521469 14.17975 6.958969 14.17975 C 7.400375 14.17975 7.75975 14.535219 7.75975 14.976625 Z M 7.75975 14.976625 " transform="matrix(1,0,0,-1,64.959,59.836)"/>
<path style="fill-rule:nonzero;fill:rgb(100%,49.804688%,0%);fill-opacity:1;stroke-width:1.59404;stroke-linecap:butt;stroke-linejoin:miter;stroke:rgb(100%,49.804688%,0%);stroke-opacity:1;stroke-miterlimit:10;" d="M 22.333969 17.812562 C 22.333969 18.253969 21.9785 18.609437 21.537094 18.609437 C 21.095687 18.609437 20.740219 18.253969 20.740219 17.812562 C 20.740219 17.371156 21.095687 17.015687 21.537094 17.015687 C 21.9785 17.015687 22.333969 17.371156 22.333969 17.812562 Z M 22.333969 17.812562 " transform="matrix(1,0,0,-1,64.959,59.836)"/>
<path style="fill-rule:nonzero;fill:rgb(100%,49.804688%,0%);fill-opacity:1;stroke-width:1.59404;stroke-linecap:butt;stroke-linejoin:miter;stroke:rgb(100%,49.804688%,0%);stroke-opacity:1;stroke-miterlimit:10;" d="M 33.63475 23.218812 C 33.63475 23.660219 33.275375 24.015687 32.837875 24.015687 C 32.396469 24.015687 32.041 23.660219 32.041 23.218812 C 32.041 22.781312 32.396469 22.421937 32.837875 22.421937 C 33.275375 22.421937 33.63475 22.781312 33.63475 23.218812 Z M 33.63475 23.218812 " transform="matrix(1,0,0,-1,64.959,59.836)"/>
<path style=" stroke:none;fill-rule:nonzero;fill:rgb(100%,49.804688%,0%);fill-opacity:1;" d="M 104.890625 29.457031 C 104.890625 29.019531 104.535156 28.660156 104.09375 28.660156 C 103.652344 28.660156 103.296875 29.019531 103.296875 29.457031 C 103.296875 29.898438 103.652344 30.253906 104.09375 30.253906 C 104.535156 30.253906 104.890625 29.898438 104.890625 29.457031 Z M 104.890625 29.457031 "/>
<g clip-path="url(#clip8)" clip-rule="nonzero">
<path style="fill:none;stroke-width:1.59404;stroke-linecap:butt;stroke-linejoin:miter;stroke:rgb(100%,49.804688%,0%);stroke-opacity:1;stroke-miterlimit:10;" d="M 39.931625 30.378969 C 39.931625 30.816469 39.576156 31.175844 39.13475 31.175844 C 38.693344 31.175844 38.337875 30.816469 38.337875 30.378969 C 38.337875 29.937562 38.693344 29.582094 39.13475 29.582094 C 39.576156 29.582094 39.931625 29.937562 39.931625 30.378969 Z M 39.931625 30.378969 " transform="matrix(1,0,0,-1,64.959,59.836)"/>
</g>
<path style=" stroke:none;fill-rule:nonzero;fill:rgb(100%,49.804688%,0%);fill-opacity:1;" d="M 105.234375 21.640625 C 105.234375 21.199219 104.875 20.84375 104.4375 20.84375 C 103.996094 20.84375 103.640625 21.199219 103.640625 21.640625 C 103.640625 22.078125 103.996094 22.4375 104.4375 22.4375 C 104.875 22.4375 105.234375 22.078125 105.234375 21.640625 Z M 105.234375 21.640625 "/>
<g clip-path="url(#clip9)" clip-rule="nonzero">
<path style="fill:none;stroke-width:1.59404;stroke-linecap:butt;stroke-linejoin:miter;stroke:rgb(100%,49.804688%,0%);stroke-opacity:1;stroke-miterlimit:10;" d="M 40.275375 38.195375 C 40.275375 38.636781 39.916 38.99225 39.4785 38.99225 C 39.037094 38.99225 38.681625 38.636781 38.681625 38.195375 C 38.681625 37.757875 39.037094 37.3985 39.4785 37.3985 C 39.916 37.3985 40.275375 37.757875 40.275375 38.195375 Z M 40.275375 38.195375 " transform="matrix(1,0,0,-1,64.959,59.836)"/>
</g>
<path style="fill-rule:nonzero;fill:rgb(100%,49.804688%,0%);fill-opacity:1;stroke-width:1.59404;stroke-linecap:butt;stroke-linejoin:miter;stroke:rgb(100%,49.804688%,0%);stroke-opacity:1;stroke-miterlimit:10;" d="M 34.6035 45.484437 C 34.6035 45.925844 34.248031 46.281312 33.806625 46.281312 C 33.365219 46.281312 33.00975 45.925844 33.00975 45.484437 C 33.00975 45.043031 33.365219 44.687562 33.806625 44.687562 C 34.248031 44.687562 34.6035 45.043031 34.6035 45.484437 Z M 34.6035 45.484437 " transform="matrix(1,0,0,-1,64.959,59.836)"/>
<path style="fill-rule:nonzero;fill:rgb(100%,49.804688%,0%);fill-opacity:1;stroke-width:1.59404;stroke-linecap:butt;stroke-linejoin:miter;stroke:rgb(100%,49.804688%,0%);stroke-opacity:1;stroke-miterlimit:10;" d="M -50.334 24.453187 C -50.334 24.894594 -50.689469 25.250062 -51.130875 25.250062 C -51.568375 25.250062 -51.92775 24.894594 -51.92775 24.453187 C -51.92775 24.015687 -51.568375 23.656312 -51.130875 23.656312 C -50.689469 23.656312 -50.334 24.015687 -50.334 24.453187 Z M -50.334 24.453187 " transform="matrix(1,0,0,-1,64.959,59.836)"/>
<path style="fill-rule:nonzero;fill:rgb(100%,49.804688%,0%);fill-opacity:1;stroke-width:1.59404;stroke-linecap:butt;stroke-linejoin:miter;stroke:rgb(100%,49.804688%,0%);stroke-opacity:1;stroke-miterlimit:10;" d="M -50.779313 14.238344 C -50.779313 14.67975 -51.138688 15.035219 -51.576188 15.035219 C -52.017594 15.035219 -52.373063 14.67975 -52.373063 14.238344 C -52.373063 13.800844 -52.017594 13.441469 -51.576188 13.441469 C -51.138688 13.441469 -50.779313 13.800844 -50.779313 14.238344 Z M -50.779313 14.238344 " transform="matrix(1,0,0,-1,64.959,59.836)"/>
<path style="fill-rule:nonzero;fill:rgb(100%,49.804688%,0%);fill-opacity:1;stroke-width:1.59404;stroke-linecap:butt;stroke-linejoin:miter;stroke:rgb(100%,49.804688%,0%);stroke-opacity:1;stroke-miterlimit:10;" d="M -43.373063 4.718812 C -43.373063 5.156312 -43.728531 5.515687 -44.169938 5.515687 C -44.607438 5.515687 -44.966813 5.156312 -44.966813 4.718812 C -44.966813 4.277406 -44.607438 3.921937 -44.169938 3.921937 C -43.728531 3.921937 -43.373063 4.277406 -43.373063 4.718812 Z M -43.373063 4.718812 " transform="matrix(1,0,0,-1,64.959,59.836)"/>
<path style="fill-rule:nonzero;fill:rgb(100%,49.804688%,0%);fill-opacity:1;stroke-width:1.59404;stroke-linecap:butt;stroke-linejoin:miter;stroke:rgb(100%,49.804688%,0%);stroke-opacity:1;stroke-miterlimit:10;" d="M -29.244156 -2.664 C -29.244156 -2.222594 -29.599625 -1.867125 -30.041031 -1.867125 C -30.478531 -1.867125 -30.837906 -2.222594 -30.837906 -2.664 C -30.837906 -3.105406 -30.478531 -3.460875 -30.041031 -3.460875 C -29.599625 -3.460875 -29.244156 -3.105406 -29.244156 -2.664 Z M -29.244156 -2.664 " transform="matrix(1,0,0,-1,64.959,59.836)"/>
<path style="fill-rule:nonzero;fill:rgb(100%,49.804688%,0%);fill-opacity:1;stroke-width:1.59404;stroke-linecap:butt;stroke-linejoin:miter;stroke:rgb(100%,49.804688%,0%);stroke-opacity:1;stroke-miterlimit:10;" d="M -10.537125 -6.777281 C -10.537125 -6.335875 -10.8965 -5.980406 -11.334 -5.980406 C -11.775406 -5.980406 -12.130875 -6.335875 -12.130875 -6.777281 C -12.130875 -7.218688 -11.775406 -7.574156 -11.334 -7.574156 C -10.8965 -7.574156 -10.537125 -7.218688 -10.537125 -6.777281 Z M -10.537125 -6.777281 " transform="matrix(1,0,0,-1,64.959,59.836)"/>
<path style="fill-rule:nonzero;fill:rgb(100%,49.804688%,0%);fill-opacity:1;stroke-width:1.59404;stroke-linecap:butt;stroke-linejoin:miter;stroke:rgb(100%,49.804688%,0%);stroke-opacity:1;stroke-miterlimit:10;" d="M 9.892562 -6.999938 C 9.892562 -6.562438 9.533187 -6.203063 9.095687 -6.203063 C 8.654281 -6.203063 8.298812 -6.562438 8.298812 -6.999938 C 8.298812 -7.441344 8.654281 -7.800719 9.095687 -7.800719 C 9.533187 -7.800719 9.892562 -7.441344 9.892562 -6.999938 Z M 9.892562 -6.999938 " transform="matrix(1,0,0,-1,64.959,59.836)"/>
<path style="fill-rule:nonzero;fill:rgb(100%,49.804688%,0%);fill-opacity:1;stroke-width:1.59404;stroke-linecap:butt;stroke-linejoin:miter;stroke:rgb(100%,49.804688%,0%);stroke-opacity:1;stroke-miterlimit:10;" d="M 28.935531 -3.296813 C 28.935531 -2.859313 28.580062 -2.499938 28.138656 -2.499938 C 27.69725 -2.499938 27.341781 -2.859313 27.341781 -3.296813 C 27.341781 -3.738219 27.69725 -4.093688 28.138656 -4.093688 C 28.580062 -4.093688 28.935531 -3.738219 28.935531 -3.296813 Z M 28.935531 -3.296813 " transform="matrix(1,0,0,-1,64.959,59.836)"/>
<path style=" stroke:none;fill-rule:nonzero;fill:rgb(100%,49.804688%,0%);fill-opacity:1;" d="M 108.65625 56.070312 C 108.65625 55.628906 108.300781 55.273438 107.859375 55.273438 C 107.421875 55.273438 107.0625 55.628906 107.0625 56.070312 C 107.0625 56.507812 107.421875 56.867188 107.859375 56.867188 C 108.300781 56.867188 108.65625 56.507812 108.65625 56.070312 Z M 108.65625 56.070312 "/>
<g clip-path="url(#clip10)" clip-rule="nonzero">
<path style="fill:none;stroke-width:1.59404;stroke-linecap:butt;stroke-linejoin:miter;stroke:rgb(100%,49.804688%,0%);stroke-opacity:1;stroke-miterlimit:10;" d="M 43.69725 3.765687 C 43.69725 4.207094 43.341781 4.562562 42.900375 4.562562 C 42.462875 4.562562 42.1035 4.207094 42.1035 3.765687 C 42.1035 3.328187 42.462875 2.968812 42.900375 2.968812 C 43.341781 2.968812 43.69725 3.328187 43.69725 3.765687 Z M 43.69725 3.765687 " transform="matrix(1,0,0,-1,64.959,59.836)"/>
</g>
<path style=" stroke:none;fill-rule:nonzero;fill:rgb(100%,49.804688%,0%);fill-opacity:1;" d="M 116.886719 46.71875 C 116.886719 46.277344 116.527344 45.921875 116.089844 45.921875 C 115.648438 45.921875 115.292969 46.277344 115.292969 46.71875 C 115.292969 47.15625 115.648438 47.515625 116.089844 47.515625 C 116.527344 47.515625 116.886719 47.15625 116.886719 46.71875 Z M 116.886719 46.71875 "/>
<g clip-path="url(#clip11)" clip-rule="nonzero">
<path style="fill:none;stroke-width:1.59404;stroke-linecap:butt;stroke-linejoin:miter;stroke:rgb(100%,49.804688%,0%);stroke-opacity:1;stroke-miterlimit:10;" d="M 51.927719 13.11725 C 51.927719 13.558656 51.568344 13.914125 51.130844 13.914125 C 50.689437 13.914125 50.333969 13.558656 50.333969 13.11725 C 50.333969 12.67975 50.689437 12.320375 51.130844 12.320375 C 51.568344 12.320375 51.927719 12.67975 51.927719 13.11725 Z M 51.927719 13.11725 " transform="matrix(1,0,0,-1,64.959,59.836)"/>
</g>
<path style=" stroke:none;fill-rule:nonzero;fill:rgb(100%,49.804688%,0%);fill-opacity:1;" d="M 117.332031 36.5 C 117.332031 36.0625 116.976562 35.703125 116.535156 35.703125 C 116.097656 35.703125 115.738281 36.0625 115.738281 36.5 C 115.738281 36.941406 116.097656 37.296875 116.535156 37.296875 C 116.976562 37.296875 117.332031 36.941406 117.332031 36.5 Z M 117.332031 36.5 "/>
<g clip-path="url(#clip12)" clip-rule="nonzero">
<path style="fill:none;stroke-width:1.59404;stroke-linecap:butt;stroke-linejoin:miter;stroke:rgb(100%,49.804688%,0%);stroke-opacity:1;stroke-miterlimit:10;" d="M 52.373031 23.336 C 52.373031 23.7735 52.017562 24.132875 51.576156 24.132875 C 51.138656 24.132875 50.779281 23.7735 50.779281 23.336 C 50.779281 22.894594 51.138656 22.539125 51.576156 22.539125 C 52.017562 22.539125 52.373031 22.894594 52.373031 23.336 Z M 52.373031 23.336 " transform="matrix(1,0,0,-1,64.959,59.836)"/>
</g>
<path style="fill-rule:nonzero;fill:rgb(100%,49.804688%,0%);fill-opacity:1;stroke-width:1.59404;stroke-linecap:butt;stroke-linejoin:miter;stroke:rgb(100%,49.804688%,0%);stroke-opacity:1;stroke-miterlimit:10;" d="M -55.033219 -4.921813 C -55.033219 -4.480406 -55.388688 -4.124938 -55.830094 -4.124938 C -56.2715 -4.124938 -56.626969 -4.480406 -56.626969 -4.921813 C -56.626969 -5.363219 -56.2715 -5.718688 -55.830094 -5.718688 C -55.388688 -5.718688 -55.033219 -5.363219 -55.033219 -4.921813 Z M -55.033219 -4.921813 " transform="matrix(1,0,0,-1,64.959,59.836)"/>
<path style="fill-rule:nonzero;fill:rgb(100%,49.804688%,0%);fill-opacity:1;stroke-width:1.59404;stroke-linecap:butt;stroke-linejoin:miter;stroke:rgb(100%,49.804688%,0%);stroke-opacity:1;stroke-miterlimit:10;" d="M -47.013688 -15.230406 C -47.013688 -14.789 -47.369156 -14.433531 -47.810563 -14.433531 C -48.251969 -14.433531 -48.607438 -14.789 -48.607438 -15.230406 C -48.607438 -15.667906 -48.251969 -16.027281 -47.810563 -16.027281 C -47.369156 -16.027281 -47.013688 -15.667906 -47.013688 -15.230406 Z M -47.013688 -15.230406 " transform="matrix(1,0,0,-1,64.959,59.836)"/>
<path style="fill-rule:nonzero;fill:rgb(100%,49.804688%,0%);fill-opacity:1;stroke-width:1.59404;stroke-linecap:butt;stroke-linejoin:miter;stroke:rgb(100%,49.804688%,0%);stroke-opacity:1;stroke-miterlimit:10;" d="M -31.720719 -23.218688 C -31.720719 -22.777281 -32.076188 -22.421813 -32.517594 -22.421813 C -32.955094 -22.421813 -33.314469 -22.777281 -33.314469 -23.218688 C -33.314469 -23.660094 -32.955094 -24.015563 -32.517594 -24.015563 C -32.076188 -24.015563 -31.720719 -23.660094 -31.720719 -23.218688 Z M -31.720719 -23.218688 " transform="matrix(1,0,0,-1,64.959,59.836)"/>
<path style="fill-rule:nonzero;fill:rgb(100%,49.804688%,0%);fill-opacity:1;stroke-width:1.59404;stroke-linecap:butt;stroke-linejoin:miter;stroke:rgb(100%,49.804688%,0%);stroke-opacity:1;stroke-miterlimit:10;" d="M -11.474625 -27.671813 C -11.474625 -27.230406 -11.830094 -26.874938 -12.2715 -26.874938 C -12.709 -26.874938 -13.068375 -27.230406 -13.068375 -27.671813 C -13.068375 -28.113219 -12.709 -28.468688 -12.2715 -28.468688 C -11.830094 -28.468688 -11.474625 -28.113219 -11.474625 -27.671813 Z M -11.474625 -27.671813 " transform="matrix(1,0,0,-1,64.959,59.836)"/>
<path style="fill-rule:nonzero;fill:rgb(100%,49.804688%,0%);fill-opacity:1;stroke-width:1.59404;stroke-linecap:butt;stroke-linejoin:miter;stroke:rgb(100%,49.804688%,0%);stroke-opacity:1;stroke-miterlimit:10;" d="M 10.642562 -27.914 C 10.642562 -27.4765 10.283187 -27.117125 9.845687 -27.117125 C 9.404281 -27.117125 9.048812 -27.4765 9.048812 -27.914 C 9.048812 -28.355406 9.404281 -28.710875 9.845687 -28.710875 C 10.283187 -28.710875 10.642562 -28.355406 10.642562 -27.914 Z M 10.642562 -27.914 " transform="matrix(1,0,0,-1,64.959,59.836)"/>
<path style="fill-rule:nonzero;fill:rgb(100%,49.804688%,0%);fill-opacity:1;stroke-width:1.59404;stroke-linecap:butt;stroke-linejoin:miter;stroke:rgb(100%,49.804688%,0%);stroke-opacity:1;stroke-miterlimit:10;" d="M 31.255844 -23.906188 C 31.255844 -23.464781 30.900375 -23.109313 30.458969 -23.109313 C 30.017562 -23.109313 29.662094 -23.464781 29.662094 -23.906188 C 29.662094 -24.343688 30.017562 -24.703063 30.458969 -24.703063 C 30.900375 -24.703063 31.255844 -24.343688 31.255844 -23.906188 Z M 31.255844 -23.906188 " transform="matrix(1,0,0,-1,64.959,59.836)"/>
<path style=" stroke:none;fill-rule:nonzero;fill:rgb(100%,49.804688%,0%);fill-opacity:1;" d="M 112.195312 76.09375 C 112.195312 75.652344 111.835938 75.296875 111.398438 75.296875 C 110.957031 75.296875 110.601562 75.652344 110.601562 76.09375 C 110.601562 76.535156 110.957031 76.890625 111.398438 76.890625 C 111.835938 76.890625 112.195312 76.535156 112.195312 76.09375 Z M 112.195312 76.09375 "/>
<g clip-path="url(#clip13)" clip-rule="nonzero">
<path style="fill:none;stroke-width:1.59404;stroke-linecap:butt;stroke-linejoin:miter;stroke:rgb(100%,49.804688%,0%);stroke-opacity:1;stroke-miterlimit:10;" d="M 47.236312 -16.25775 C 47.236312 -15.816344 46.876937 -15.460875 46.439437 -15.460875 C 45.998031 -15.460875 45.642562 -15.816344 45.642562 -16.25775 C 45.642562 -16.699156 45.998031 -17.054625 46.439437 -17.054625 C 46.876937 -17.054625 47.236312 -16.699156 47.236312 -16.25775 Z M 47.236312 -16.25775 " transform="matrix(1,0,0,-1,64.959,59.836)"/>
</g>
<path style=" stroke:none;fill-rule:nonzero;fill:rgb(100%,49.804688%,0%);fill-opacity:1;" d="M 121.101562 65.972656 C 121.101562 65.53125 120.742188 65.175781 120.304688 65.175781 C 119.863281 65.175781 119.507812 65.53125 119.507812 65.972656 C 119.507812 66.410156 119.863281 66.769531 120.304688 66.769531 C 120.742188 66.769531 121.101562 66.410156 121.101562 65.972656 Z M 121.101562 65.972656 "/>
<g clip-path="url(#clip14)" clip-rule="nonzero">
<path style="fill:none;stroke-width:1.59404;stroke-linecap:butt;stroke-linejoin:miter;stroke:rgb(100%,49.804688%,0%);stroke-opacity:1;stroke-miterlimit:10;" d="M 56.142562 -6.136656 C 56.142562 -5.69525 55.783187 -5.339781 55.345687 -5.339781 C 54.904281 -5.339781 54.548812 -5.69525 54.548812 -6.136656 C 54.548812 -6.574156 54.904281 -6.933531 55.345687 -6.933531 C 55.783187 -6.933531 56.142562 -6.574156 56.142562 -6.136656 Z M 56.142562 -6.136656 " transform="matrix(1,0,0,-1,64.959,59.836)"/>
</g>
<path style="fill-rule:nonzero;fill:rgb(100%,49.804688%,0%);fill-opacity:1;stroke-width:1.59404;stroke-linecap:butt;stroke-linejoin:miter;stroke:rgb(100%,49.804688%,0%);stroke-opacity:1;stroke-miterlimit:10;" d="M -43.373063 -32.855406 C -43.373063 -32.417906 -43.728531 -32.058531 -44.169938 -32.058531 C -44.607438 -32.058531 -44.966813 -32.417906 -44.966813 -32.855406 C -44.966813 -33.296813 -44.607438 -33.652281 -44.169938 -33.652281 C -43.728531 -33.652281 -43.373063 -33.296813 -43.373063 -32.855406 Z M -43.373063 -32.855406 " transform="matrix(1,0,0,-1,64.959,59.836)"/>
<path style=" stroke:none;fill-rule:nonzero;fill:rgb(100%,49.804688%,0%);fill-opacity:1;" d="M 35.714844 100.074219 C 35.714844 99.632812 35.359375 99.277344 34.917969 99.277344 C 34.480469 99.277344 34.121094 99.632812 34.121094 100.074219 C 34.121094 100.515625 34.480469 100.871094 34.917969 100.871094 C 35.359375 100.871094 35.714844 100.515625 35.714844 100.074219 Z M 35.714844 100.074219 "/>
<g clip-path="url(#clip15)" clip-rule="nonzero">
<path style="fill:none;stroke-width:1.59404;stroke-linecap:butt;stroke-linejoin:miter;stroke:rgb(100%,49.804688%,0%);stroke-opacity:1;stroke-miterlimit:10;" d="M -29.244156 -40.238219 C -29.244156 -39.796813 -29.599625 -39.441344 -30.041031 -39.441344 C -30.478531 -39.441344 -30.837906 -39.796813 -30.837906 -40.238219 C -30.837906 -40.679625 -30.478531 -41.035094 -30.041031 -41.035094 C -29.599625 -41.035094 -29.244156 -40.679625 -29.244156 -40.238219 Z M -29.244156 -40.238219 " transform="matrix(1,0,0,-1,64.959,59.836)"/>
</g>
<path style=" stroke:none;fill-rule:nonzero;fill:rgb(100%,49.804688%,0%);fill-opacity:1;" d="M 54.421875 104.1875 C 54.421875 103.746094 54.0625 103.390625 53.625 103.390625 C 53.183594 103.390625 52.828125 103.746094 52.828125 104.1875 C 52.828125 104.628906 53.183594 104.984375 53.625 104.984375 C 54.0625 104.984375 54.421875 104.628906 54.421875 104.1875 Z M 54.421875 104.1875 "/>
<g clip-path="url(#clip16)" clip-rule="nonzero">
<path style="fill:none;stroke-width:1.59404;stroke-linecap:butt;stroke-linejoin:miter;stroke:rgb(100%,49.804688%,0%);stroke-opacity:1;stroke-miterlimit:10;" d="M -10.537125 -44.3515 C -10.537125 -43.910094 -10.8965 -43.554625 -11.334 -43.554625 C -11.775406 -43.554625 -12.130875 -43.910094 -12.130875 -44.3515 C -12.130875 -44.792906 -11.775406 -45.148375 -11.334 -45.148375 C -10.8965 -45.148375 -10.537125 -44.792906 -10.537125 -44.3515 Z M -10.537125 -44.3515 " transform="matrix(1,0,0,-1,64.959,59.836)"/>
</g>
<path style=" stroke:none;fill-rule:nonzero;fill:rgb(100%,49.804688%,0%);fill-opacity:1;" d="M 74.851562 104.410156 C 74.851562 103.972656 74.492188 103.613281 74.054688 103.613281 C 73.613281 103.613281 73.257812 103.972656 73.257812 104.410156 C 73.257812 104.851562 73.613281 105.207031 74.054688 105.207031 C 74.492188 105.207031 74.851562 104.851562 74.851562 104.410156 Z M 74.851562 104.410156 "/>
<g clip-path="url(#clip17)" clip-rule="nonzero">
<path style="fill:none;stroke-width:1.59404;stroke-linecap:butt;stroke-linejoin:miter;stroke:rgb(100%,49.804688%,0%);stroke-opacity:1;stroke-miterlimit:10;" d="M 9.892562 -44.574156 C 9.892562 -44.136656 9.533187 -43.777281 9.095687 -43.777281 C 8.654281 -43.777281 8.298812 -44.136656 8.298812 -44.574156 C 8.298812 -45.015563 8.654281 -45.371031 9.095687 -45.371031 C 9.533187 -45.371031 9.892562 -45.015563 9.892562 -44.574156 Z M 9.892562 -44.574156 " transform="matrix(1,0,0,-1,64.959,59.836)"/>
</g>
<path style=" stroke:none;fill-rule:nonzero;fill:rgb(100%,49.804688%,0%);fill-opacity:1;" d="M 93.894531 100.707031 C 93.894531 100.265625 93.539062 99.910156 93.097656 99.910156 C 92.65625 99.910156 92.300781 100.265625 92.300781 100.707031 C 92.300781 101.148438 92.65625 101.503906 93.097656 101.503906 C 93.539062 101.503906 93.894531 101.148438 93.894531 100.707031 Z M 93.894531 100.707031 "/>
<g clip-path="url(#clip18)" clip-rule="nonzero">
<path style="fill:none;stroke-width:1.59404;stroke-linecap:butt;stroke-linejoin:miter;stroke:rgb(100%,49.804688%,0%);stroke-opacity:1;stroke-miterlimit:10;" d="M 28.935531 -40.871031 C 28.935531 -40.429625 28.580062 -40.074156 28.138656 -40.074156 C 27.69725 -40.074156 27.341781 -40.429625 27.341781 -40.871031 C 27.341781 -41.312438 27.69725 -41.667906 28.138656 -41.667906 C 28.580062 -41.667906 28.935531 -41.312438 28.935531 -40.871031 Z M 28.935531 -40.871031 " transform="matrix(1,0,0,-1,64.959,59.836)"/>
</g>
<path style=" stroke:none;fill-rule:nonzero;fill:rgb(100%,49.804688%,0%);fill-opacity:1;" d="M 108.65625 93.644531 C 108.65625 93.203125 108.300781 92.847656 107.859375 92.847656 C 107.421875 92.847656 107.0625 93.203125 107.0625 93.644531 C 107.0625 94.082031 107.421875 94.441406 107.859375 94.441406 C 108.300781 94.441406 108.65625 94.082031 108.65625 93.644531 Z M 108.65625 93.644531 "/>
<g clip-path="url(#clip19)" clip-rule="nonzero">
<path style="fill:none;stroke-width:1.59404;stroke-linecap:butt;stroke-linejoin:miter;stroke:rgb(100%,49.804688%,0%);stroke-opacity:1;stroke-miterlimit:10;" d="M 43.69725 -33.808531 C 43.69725 -33.367125 43.341781 -33.011656 42.900375 -33.011656 C 42.462875 -33.011656 42.1035 -33.367125 42.1035 -33.808531 C 42.1035 -34.246031 42.462875 -34.605406 42.900375 -34.605406 C 43.341781 -34.605406 43.69725 -34.246031 43.69725 -33.808531 Z M 43.69725 -33.808531 " transform="matrix(1,0,0,-1,64.959,59.836)"/>
</g>
<path style=" stroke:none;fill-rule:nonzero;fill:rgb(100%,49.804688%,0%);fill-opacity:1;" d="M 31.949219 105.320312 C 31.949219 104.878906 31.59375 104.523438 31.152344 104.523438 C 30.710938 104.523438 30.355469 104.878906 30.355469 105.320312 C 30.355469 105.761719 30.710938 106.117188 31.152344 106.117188 C 31.59375 106.117188 31.949219 105.761719 31.949219 105.320312 Z M 31.949219 105.320312 "/>
<g clip-path="url(#clip20)" clip-rule="nonzero">
<path style="fill:none;stroke-width:1.59404;stroke-linecap:butt;stroke-linejoin:miter;stroke:rgb(100%,49.804688%,0%);stroke-opacity:1;stroke-miterlimit:10;" d="M -33.009781 -45.484313 C -33.009781 -45.042906 -33.36525 -44.687438 -33.806656 -44.687438 C -34.248063 -44.687438 -34.603531 -45.042906 -34.603531 -45.484313 C -34.603531 -45.925719 -34.248063 -46.281188 -33.806656 -46.281188 C -33.36525 -46.281188 -33.009781 -45.925719 -33.009781 -45.484313 Z M -33.009781 -45.484313 " transform="matrix(1,0,0,-1,64.959,59.836)"/>
</g>
<path style=" stroke:none;fill-rule:nonzero;fill:rgb(100%,49.804688%,0%);fill-opacity:1;" d="M 42.761719 110.96875 C 42.761719 110.53125 42.40625 110.171875 41.964844 110.171875 C 41.527344 110.171875 41.167969 110.53125 41.167969 110.96875 C 41.167969 111.410156 41.527344 111.765625 41.964844 111.765625 C 42.40625 111.765625 42.761719 111.410156 42.761719 110.96875 Z M 42.761719 110.96875 "/>
<g clip-path="url(#clip21)" clip-rule="nonzero">
<path style="fill:none;stroke-width:1.59404;stroke-linecap:butt;stroke-linejoin:miter;stroke:rgb(100%,49.804688%,0%);stroke-opacity:1;stroke-miterlimit:10;" d="M -22.197281 -51.13275 C -22.197281 -50.69525 -22.55275 -50.335875 -22.994156 -50.335875 C -23.431656 -50.335875 -23.791031 -50.69525 -23.791031 -51.13275 C -23.791031 -51.574156 -23.431656 -51.929625 -22.994156 -51.929625 C -22.55275 -51.929625 -22.197281 -51.574156 -22.197281 -51.13275 Z M -22.197281 -51.13275 " transform="matrix(1,0,0,-1,64.959,59.836)"/>
</g>
<path style=" stroke:none;fill-rule:nonzero;fill:rgb(100%,49.804688%,0%);fill-opacity:1;" d="M 57.078125 114.117188 C 57.078125 113.679688 56.722656 113.320312 56.28125 113.320312 C 55.84375 113.320312 55.484375 113.679688 55.484375 114.117188 C 55.484375 114.558594 55.84375 114.917969 56.28125 114.917969 C 56.722656 114.917969 57.078125 114.558594 57.078125 114.117188 Z M 57.078125 114.117188 "/>
<g clip-path="url(#clip22)" clip-rule="nonzero">
<path style="fill:none;stroke-width:1.59404;stroke-linecap:butt;stroke-linejoin:miter;stroke:rgb(100%,49.804688%,0%);stroke-opacity:1;stroke-miterlimit:10;" d="M -7.880875 -54.281188 C -7.880875 -53.843688 -8.236344 -53.484313 -8.67775 -53.484313 C -9.11525 -53.484313 -9.474625 -53.843688 -9.474625 -54.281188 C -9.474625 -54.722594 -9.11525 -55.081969 -8.67775 -55.081969 C -8.236344 -55.081969 -7.880875 -54.722594 -7.880875 -54.281188 Z M -7.880875 -54.281188 " transform="matrix(1,0,0,-1,64.959,59.836)"/>
</g>
<path style=" stroke:none;fill-rule:nonzero;fill:rgb(100%,49.804688%,0%);fill-opacity:1;" d="M 72.71875 114.289062 C 72.71875 113.851562 72.359375 113.492188 71.917969 113.492188 C 71.480469 113.492188 71.121094 113.851562 71.121094 114.289062 C 71.121094 114.730469 71.480469 115.085938 71.917969 115.085938 C 72.359375 115.085938 72.71875 114.730469 72.71875 114.289062 Z M 72.71875 114.289062 "/>
<g clip-path="url(#clip23)" clip-rule="nonzero">
<path style="fill:none;stroke-width:1.59404;stroke-linecap:butt;stroke-linejoin:miter;stroke:rgb(100%,49.804688%,0%);stroke-opacity:1;stroke-miterlimit:10;" d="M 7.75975 -54.453063 C 7.75975 -54.015563 7.400375 -53.656188 6.958969 -53.656188 C 6.521469 -53.656188 6.162094 -54.015563 6.162094 -54.453063 C 6.162094 -54.894469 6.521469 -55.249938 6.958969 -55.249938 C 7.400375 -55.249938 7.75975 -54.894469 7.75975 -54.453063 Z M 7.75975 -54.453063 " transform="matrix(1,0,0,-1,64.959,59.836)"/>
</g>
<path style=" stroke:none;fill-rule:nonzero;fill:rgb(100%,49.804688%,0%);fill-opacity:1;" d="M 87.292969 111.457031 C 87.292969 111.015625 86.9375 110.660156 86.496094 110.660156 C 86.054688 110.660156 85.699219 111.015625 85.699219 111.457031 C 85.699219 111.894531 86.054688 112.253906 86.496094 112.253906 C 86.9375 112.253906 87.292969 111.894531 87.292969 111.457031 Z M 87.292969 111.457031 "/>
<g clip-path="url(#clip24)" clip-rule="nonzero">
<path style="fill:none;stroke-width:1.59404;stroke-linecap:butt;stroke-linejoin:miter;stroke:rgb(100%,49.804688%,0%);stroke-opacity:1;stroke-miterlimit:10;" d="M 22.333969 -51.621031 C 22.333969 -51.179625 21.9785 -50.824156 21.537094 -50.824156 C 21.095687 -50.824156 20.740219 -51.179625 20.740219 -51.621031 C 20.740219 -52.058531 21.095687 -52.417906 21.537094 -52.417906 C 21.9785 -52.417906 22.333969 -52.058531 22.333969 -51.621031 Z M 22.333969 -51.621031 " transform="matrix(1,0,0,-1,64.959,59.836)"/>
</g>
<path style=" stroke:none;fill-rule:nonzero;fill:rgb(100%,49.804688%,0%);fill-opacity:1;" d="M 98.59375 106.046875 C 98.59375 105.609375 98.234375 105.25 97.796875 105.25 C 97.355469 105.25 97 105.609375 97 106.046875 C 97 106.488281 97.355469 106.84375 97.796875 106.84375 C 98.234375 106.84375 98.59375 106.488281 98.59375 106.046875 Z M 98.59375 106.046875 "/>
<g clip-path="url(#clip25)" clip-rule="nonzero">
<path style="fill:none;stroke-width:1.59404;stroke-linecap:butt;stroke-linejoin:miter;stroke:rgb(100%,49.804688%,0%);stroke-opacity:1;stroke-miterlimit:10;" d="M 33.63475 -46.210875 C 33.63475 -45.773375 33.275375 -45.414 32.837875 -45.414 C 32.396469 -45.414 32.041 -45.773375 32.041 -46.210875 C 32.041 -46.652281 32.396469 -47.00775 32.837875 -47.00775 C 33.275375 -47.00775 33.63475 -46.652281 33.63475 -46.210875 Z M 33.63475 -46.210875 " transform="matrix(1,0,0,-1,64.959,59.836)"/>
</g>
</g>
</svg>
